<svg width="25" height="25" viewBox="0 0 25 25" fill="none" xmlns="http://www.w3.org/2000/svg">
<path d="M6.24968 18.7497L3.85384 21.1455C3.52398 21.4754 3.1462 21.5493 2.72051 21.3674C2.29482 21.1854 2.08232 20.8597 2.08301 20.3903V4.16634C2.08301 3.59342 2.28718 3.10315 2.69551 2.69551C3.10384 2.28787 3.59412 2.0837 4.16634 2.08301H20.833C21.4059 2.08301 21.8966 2.28717 22.3049 2.69551C22.7132 3.10384 22.917 3.59412 22.9163 4.16634V16.6663C22.9163 17.2393 22.7125 17.7299 22.3049 18.1382C21.8972 18.5466 21.4066 18.7504 20.833 18.7497H6.24968ZM5.36426 16.6663H20.833V4.16634H4.16634V17.8382L5.36426 16.6663ZM7.29134 14.583H13.5413C13.8365 14.583 14.0841 14.483 14.2841 14.283C14.4841 14.083 14.5837 13.8358 14.583 13.5413C14.5823 13.2469 14.4823 12.9997 14.283 12.7997C14.0837 12.5997 13.8365 12.4997 13.5413 12.4997H7.29134C6.9962 12.4997 6.74898 12.5997 6.54968 12.7997C6.35037 12.9997 6.25037 13.2469 6.24968 13.5413C6.24898 13.8358 6.34898 14.0834 6.54968 14.2841C6.75037 14.4847 6.99759 14.5844 7.29134 14.583ZM7.29134 11.458H17.708C18.0031 11.458 18.2507 11.358 18.4507 11.158C18.6507 10.958 18.7504 10.7108 18.7497 10.4163C18.749 10.1219 18.649 9.87468 18.4497 9.67467C18.2504 9.47468 18.0031 9.37467 17.708 9.37467H7.29134C6.9962 9.37467 6.74898 9.47468 6.54968 9.67467C6.35037 9.87468 6.25037 10.1219 6.24968 10.4163C6.24898 10.7108 6.34898 10.9584 6.54968 11.1591C6.75037 11.3597 6.99759 11.4594 7.29134 11.458ZM7.29134 8.33301H17.708C18.0031 8.33301 18.2507 8.23301 18.4507 8.03301C18.6507 7.83301 18.7504 7.58579 18.7497 7.29134C18.749 6.9969 18.649 6.74967 18.4497 6.54967C18.2504 6.34967 18.0031 6.24967 17.708 6.24967H7.29134C6.9962 6.24967 6.74898 6.34967 6.54968 6.54967C6.35037 6.74967 6.25037 6.9969 6.24968 7.29134C6.24898 7.58579 6.34898 7.83336 6.54968 8.03405C6.75037 8.23474 6.99759 8.3344 7.29134 8.33301Z" fill="white"/>
</svg>
