<svg width="25" height="25" viewBox="0 0 25 25" fill="none" xmlns="http://www.w3.org/2000/svg">
<path d="M6.24968 18.7502L3.85384 21.146C3.52398 21.4759 3.1462 21.5498 2.72051 21.3679C2.29482 21.1859 2.08232 20.8602 2.08301 20.3908V4.16683C2.08301 3.59391 2.28718 3.10364 2.69551 2.696C3.10384 2.28836 3.59412 2.08419 4.16634 2.0835H20.833C21.4059 2.0835 21.8966 2.28766 22.3049 2.696C22.7132 3.10433 22.917 3.59461 22.9163 4.16683V16.6668C22.9163 17.2397 22.7125 17.7304 22.3049 18.1387C21.8972 18.547 21.4066 18.7509 20.833 18.7502H6.24968ZM5.36426 16.6668H20.833V4.16683H4.16634V17.8387L5.36426 16.6668ZM7.29134 14.5835H13.5413C13.8365 14.5835 14.0841 14.4835 14.2841 14.2835C14.4841 14.0835 14.5837 13.8363 14.583 13.5418C14.5823 13.2474 14.4823 13.0002 14.283 12.8002C14.0837 12.6002 13.8365 12.5002 13.5413 12.5002H7.29134C6.9962 12.5002 6.74898 12.6002 6.54968 12.8002C6.35037 13.0002 6.25037 13.2474 6.24968 13.5418C6.24898 13.8363 6.34898 14.0838 6.54968 14.2845C6.75037 14.4852 6.99759 14.5849 7.29134 14.5835ZM7.29134 11.4585H17.708C18.0031 11.4585 18.2507 11.3585 18.4507 11.1585C18.6507 10.9585 18.7504 10.7113 18.7497 10.4168C18.749 10.1224 18.649 9.87516 18.4497 9.67516C18.2504 9.47516 18.0031 9.37516 17.708 9.37516H7.29134C6.9962 9.37516 6.74898 9.47516 6.54968 9.67516C6.35037 9.87516 6.25037 10.1224 6.24968 10.4168C6.24898 10.7113 6.34898 10.9588 6.54968 11.1595C6.75037 11.3602 6.99759 11.4599 7.29134 11.4585ZM7.29134 8.3335H17.708C18.0031 8.3335 18.2507 8.2335 18.4507 8.0335C18.6507 7.8335 18.7504 7.58627 18.7497 7.29183C18.749 6.99739 18.649 6.75016 18.4497 6.55016C18.2504 6.35016 18.0031 6.25016 17.708 6.25016H7.29134C6.9962 6.25016 6.74898 6.35016 6.54968 6.55016C6.35037 6.75016 6.25037 6.99739 6.24968 7.29183C6.24898 7.58627 6.34898 7.83384 6.54968 8.03454C6.75037 8.23523 6.99759 8.33489 7.29134 8.3335Z" fill="#475569"/>
</svg>
