<svg width="13" height="13" viewBox="0 0 13 13" fill="none" xmlns="http://www.w3.org/2000/svg">
<path d="M3.94767 7.42755C3.84367 7.32355 3.79167 7.19481 3.79167 7.04134C3.79167 6.88787 3.84367 6.75931 3.94767 6.65567C4.05167 6.55204 4.18022 6.50004 4.33333 6.49967C4.48644 6.49931 4.61518 6.55131 4.71954 6.65567C4.8239 6.76004 4.87572 6.88859 4.875 7.04134C4.87428 7.19409 4.82228 7.32283 4.719 7.42755C4.61572 7.53227 4.48717 7.58409 4.33333 7.58301C4.1795 7.58192 4.05094 7.52992 3.94767 7.42701M6.11433 7.42701C6.01033 7.32373 5.95833 7.19517 5.95833 7.04134C5.95833 6.88751 6.01033 6.75895 6.11433 6.65567C6.21833 6.5524 6.34689 6.5004 6.5 6.49967C6.65311 6.49895 6.78185 6.55095 6.88621 6.65567C6.99057 6.7604 7.04239 6.88895 7.04167 7.04134C7.04094 7.19373 6.98894 7.32247 6.88567 7.42755C6.78239 7.53263 6.65383 7.58445 6.5 7.58301C6.34617 7.58156 6.21761 7.52956 6.11433 7.42701ZM8.281 7.42701C8.177 7.32373 8.125 7.19517 8.125 7.04134C8.125 6.88751 8.177 6.75895 8.281 6.65567C8.385 6.5524 8.51356 6.5004 8.66667 6.49967C8.81978 6.49895 8.94851 6.55095 9.05287 6.65567C9.15724 6.7604 9.20906 6.88895 9.20833 7.04134C9.20761 7.19373 9.15561 7.32247 9.05233 7.42755C8.94906 7.53263 8.8205 7.58445 8.66667 7.58301C8.51283 7.58156 8.38428 7.52956 8.281 7.42701ZM2.70833 11.9163C2.41042 11.9163 2.15547 11.8104 1.9435 11.5984C1.73153 11.3864 1.62536 11.1313 1.625 10.833V3.24967C1.625 2.95176 1.73117 2.69681 1.9435 2.48484C2.15583 2.27287 2.41078 2.1667 2.70833 2.16634H3.25V1.08301H4.33333V2.16634H8.66667V1.08301H9.75V2.16634H10.2917C10.5896 2.16634 10.8447 2.27251 11.057 2.48484C11.2694 2.69717 11.3754 2.95212 11.375 3.24967V10.833C11.375 11.1309 11.269 11.386 11.057 11.5984C10.8451 11.8107 10.5899 11.9167 10.2917 11.9163H2.70833ZM2.70833 10.833H10.2917V5.41634H2.70833V10.833ZM2.70833 4.33301H10.2917V3.24967H2.70833V4.33301Z" fill="#0F172A"/>
</svg>
