<svg width="14" height="11" viewBox="0 0 14 11" fill="none" xmlns="http://www.w3.org/2000/svg">
<path d="M8.25417 5.6875C7.76806 5.6875 7.35486 5.51736 7.01458 5.17708C6.67431 4.83681 6.50417 4.42361 6.50417 3.9375C6.50417 3.45139 6.67431 3.03819 7.01458 2.69792C7.35486 2.35764 7.76806 2.1875 8.25417 2.1875C8.74028 2.1875 9.15347 2.35764 9.49375 2.69792C9.83403 3.03819 10.0042 3.45139 10.0042 3.9375C10.0042 4.42361 9.83403 4.83681 9.49375 5.17708C9.15347 5.51736 8.74028 5.6875 8.25417 5.6875V5.6875M4.62292 7.88958C4.1176 7.88958 3.68503 7.70966 3.32518 7.34982C2.96534 6.98997 2.78542 6.5574 2.78542 6.05208V1.8375C2.78542 1.33219 2.96534 0.89961 3.32518 0.539766C3.68503 0.179922 4.1176 0 4.62292 0H11.9C12.4053 0 12.8379 0.179922 13.1977 0.539766C13.5576 0.89961 13.7375 1.33219 13.7375 1.8375V6.05208C13.7375 6.5574 13.5576 6.98997 13.1977 7.34982C12.8379 7.70966 12.4053 7.88958 11.9 7.88958H4.62292V7.88958M5.57083 6.27083H10.9521C10.9521 5.95 11.0663 5.67535 11.2948 5.44688C11.5233 5.2184 11.7979 5.10417 12.1187 5.10417V2.77083C11.7979 2.77083 11.5233 2.6566 11.2948 2.42812C11.0663 2.19965 10.9521 1.925 10.9521 1.60417H5.57083C5.57083 1.925 5.4566 2.19965 5.22813 2.42812C4.99965 2.6566 4.725 2.77083 4.40417 2.77083V5.10417C4.725 5.10417 4.99965 5.2184 5.22813 5.44688C5.4566 5.67535 5.57083 5.95 5.57083 6.27083V6.27083M11.5354 10.675H1.8375C1.33219 10.675 0.899609 10.4951 0.539766 10.1352C0.179922 9.77539 0 9.34281 0 8.8375V2.63958H1.8375V8.8375V8.8375V8.8375H11.5354V10.675V10.675M4.40417 6.27083V6.27083V6.27083V6.27083V1.60417V1.60417V1.60417V1.60417V1.60417V1.60417V6.27083V6.27083V6.27083V6.27083" fill="#16A34A"/>
</svg>
