<svg width="13" height="13" viewBox="0 0 13 13" fill="none" xmlns="http://www.w3.org/2000/svg">
<path d="M6.49967 1.08301C9.4913 1.08301 11.9163 3.50805 11.9163 6.49967C11.9163 9.4913 9.4913 11.9163 6.49967 11.9163C3.50805 11.9163 1.08301 9.4913 1.08301 6.49967C1.08301 3.50805 3.50805 1.08301 6.49967 1.08301ZM6.49967 2.16634C5.3504 2.16634 4.2482 2.62289 3.43554 3.43554C2.62289 4.2482 2.16634 5.3504 2.16634 6.49967C2.16634 7.64895 2.62289 8.75115 3.43554 9.5638C4.2482 10.3765 5.3504 10.833 6.49967 10.833C7.64895 10.833 8.75115 10.3765 9.5638 9.5638C10.3765 8.75115 10.833 7.64895 10.833 6.49967C10.833 5.3504 10.3765 4.2482 9.5638 3.43554C8.75115 2.62289 7.64895 2.16634 6.49967 2.16634ZM6.49967 3.24967C6.63235 3.24969 6.7604 3.2984 6.85954 3.38656C6.95869 3.47472 7.02203 3.5962 7.03755 3.72797L7.04134 3.79134V6.27542L8.50763 7.74172C8.60478 7.83919 8.66118 7.96999 8.66538 8.10755C8.66958 8.2451 8.62127 8.3791 8.53025 8.48232C8.43923 8.58555 8.31233 8.65026 8.17533 8.66331C8.03833 8.67636 7.9015 8.63677 7.79263 8.55259L7.74172 8.50763L6.11672 6.88263C6.03253 6.79837 5.97846 6.68872 5.96288 6.57063L5.95801 6.49967V3.79134C5.95801 3.64768 6.01508 3.50991 6.11666 3.40832C6.21824 3.30674 6.35602 3.24967 6.49967 3.24967Z" fill="#0F172A"/>
</svg>
