<svg width="19" height="21" viewBox="0 0 19 21" fill="none" xmlns="http://www.w3.org/2000/svg">
<path d="M2 20C1.45 20 0.979333 19.8043 0.588 19.413C0.196667 19.0217 0.000666667 18.5507 0 18V4C0 3.45 0.196 2.97934 0.588 2.588C0.98 2.19667 1.45067 2.00067 2 2H3V1C3 0.71667 3.096 0.479337 3.288 0.288004C3.48 0.0966702 3.71733 0.000670115 4 3.44827e-06C4.28267 -0.000663218 4.52033 0.0953369 4.713 0.288004C4.90567 0.48067 5.00133 0.718003 5 1V2H13V1C13 0.71667 13.096 0.479337 13.288 0.288004C13.48 0.0966702 13.7173 0.000670115 14 3.44827e-06C14.2827 -0.000663218 14.5203 0.0953369 14.713 0.288004C14.9057 0.48067 15.0013 0.718003 15 1V2H16C16.55 2 17.021 2.196 17.413 2.588C17.805 2.98 18.0007 3.45067 18 4V10.375C18 10.6583 17.904 10.896 17.712 11.088C17.52 11.28 17.2827 11.3757 17 11.375C16.7173 11.3743 16.48 11.2783 16.288 11.087C16.096 10.8957 16 10.6583 16 10.375V8H2V18H8.225C8.50833 18 8.74167 18.096 8.925 18.288C9.10833 18.48 9.2 18.7173 9.2 19C9.2 19.2827 9.10433 19.5203 8.913 19.713C8.72167 19.9057 8.484 20.0013 8.2 20H2ZM13.525 17.675L17.075 14.125C17.275 13.925 17.5083 13.825 17.775 13.825C18.0417 13.825 18.275 13.925 18.475 14.125C18.675 14.325 18.775 14.5627 18.775 14.838C18.775 15.1133 18.675 15.3507 18.475 15.55L14.25 19.8C14.05 20 13.8127 20.1 13.538 20.1C13.2633 20.1 13.0257 20 12.825 19.8L10.7 17.675C10.5 17.475 10.4 17.2377 10.4 16.963C10.4 16.6883 10.5 16.4507 10.7 16.25C10.9 16.0493 11.1377 15.9493 11.413 15.95C11.6883 15.9507 11.9257 16.0507 12.125 16.25L13.525 17.675Z" fill="#CC5500"/>
</svg>
