<svg width="21" height="21" viewBox="0 0 21 21" fill="none" xmlns="http://www.w3.org/2000/svg">
<path d="M18.8546 7.80023C18.5159 7.44625 18.1655 7.08148 18.0334 6.76074C17.9113 6.46695 17.9041 5.98 17.8969 5.50832C17.8834 4.63145 17.869 3.63777 17.1781 2.94687C16.4872 2.25598 15.4936 2.2416 14.6167 2.22812C14.145 2.22094 13.658 2.21375 13.3643 2.09156C13.0444 1.95949 12.6787 1.6091 12.3248 1.27039C11.7048 0.674726 11.0005 0 10.0625 0C9.12453 0 8.42105 0.674726 7.80023 1.27039C7.44625 1.6091 7.08148 1.95949 6.76074 2.09156C6.46875 2.21375 5.98 2.22094 5.50832 2.22812C4.63145 2.2416 3.63777 2.25598 2.94687 2.94687C2.25598 3.63777 2.24609 4.63145 2.22812 5.50832C2.22094 5.98 2.21375 6.46695 2.09156 6.76074C1.95949 7.08059 1.6091 7.44625 1.27039 7.80023C0.674726 8.42016 0 9.12453 0 10.0625C0 11.0005 0.674726 11.7039 1.27039 12.3248C1.6091 12.6787 1.95949 13.0435 2.09156 13.3643C2.21375 13.658 2.22094 14.145 2.22812 14.6167C2.2416 15.4936 2.25598 16.4872 2.94687 17.1781C3.63777 17.869 4.63145 17.8834 5.50832 17.8969C5.98 17.9041 6.46695 17.9113 6.76074 18.0334C7.08059 18.1655 7.44625 18.5159 7.80023 18.8546C8.42016 19.4503 9.12453 20.125 10.0625 20.125C11.0005 20.125 11.7039 19.4503 12.3248 18.8546C12.6787 18.5159 13.0435 18.1655 13.3643 18.0334C13.658 17.9113 14.145 17.9041 14.6167 17.8969C15.4936 17.8834 16.4872 17.869 17.1781 17.1781C17.869 16.4872 17.8834 15.4936 17.8969 14.6167C17.9041 14.145 17.9113 13.658 18.0334 13.3643C18.1655 13.0444 18.5159 12.6787 18.8546 12.3248C19.4503 11.7048 20.125 11.0005 20.125 10.0625C20.125 9.12453 19.4503 8.42105 18.8546 7.80023ZM14.1648 8.41477L9.13352 13.446C9.06676 13.5128 8.98749 13.5659 8.90024 13.602C8.81298 13.6382 8.71945 13.6568 8.625 13.6568C8.53055 13.6568 8.43702 13.6382 8.34976 13.602C8.26251 13.5659 8.18324 13.5128 8.11648 13.446L5.96023 11.2898C5.89345 11.223 5.84048 11.1437 5.80434 11.0565C5.7682 10.9692 5.7496 10.8757 5.7496 10.7812C5.7496 10.6868 5.7682 10.5933 5.80434 10.506C5.84048 10.4188 5.89345 10.3395 5.96023 10.2727C6.0951 10.1379 6.27802 10.0621 6.46875 10.0621C6.56319 10.0621 6.65671 10.0807 6.74396 10.1168C6.83121 10.153 6.91049 10.206 6.97727 10.2727L8.625 11.9214L13.1477 7.39773C13.2145 7.33095 13.2938 7.27798 13.381 7.24184C13.4683 7.2057 13.5618 7.1871 13.6562 7.1871C13.7507 7.1871 13.8442 7.2057 13.9315 7.24184C14.0187 7.27798 14.098 7.33095 14.1648 7.39773C14.2315 7.46451 14.2845 7.54379 14.3207 7.63104C14.3568 7.71829 14.3754 7.81181 14.3754 7.90625C14.3754 8.00069 14.3568 8.09421 14.3207 8.18146C14.2845 8.26871 14.2315 8.34799 14.1648 8.41477Z" fill="#EFD7C4"/>
</svg>
