<svg width="13" height="7" viewBox="0 0 13 7" fill="none" xmlns="http://www.w3.org/2000/svg">
<path d="M10.1562 3.88911H2.84375C2.61625 3.88911 2.4375 3.71799 2.4375 3.50022C2.4375 3.28244 2.61625 3.11133 2.84375 3.11133H10.1562C10.3837 3.11133 10.5625 3.28244 10.5625 3.50022C10.5625 3.71799 10.3837 3.88911 10.1562 3.88911Z" fill="#CC5500"/>
<path d="M8.125 6.61083C8.07172 6.61145 8.01889 6.60139 7.96992 6.5813C7.92094 6.5612 7.8769 6.53152 7.84063 6.49416C7.67813 6.3386 7.67813 6.09749 7.84063 5.94194L10.4 3.49194L7.84063 1.04194C7.67813 0.88638 7.67813 0.645269 7.84063 0.489714C8.00313 0.334158 8.255 0.334158 8.4175 0.489714L11.2613 3.21194C11.4238 3.36749 11.4238 3.6086 11.2613 3.76416L8.4175 6.48638C8.33625 6.56416 8.23063 6.60305 8.13313 6.60305L8.125 6.61083Z" fill="#CC5500"/>
</svg>
