<svg width="18" height="18" viewBox="0 0 18 18" fill="none" xmlns="http://www.w3.org/2000/svg">
<path d="M2.8125 3.375H1.6875C1.37684 3.375 1.125 3.62684 1.125 3.9375V15.75C1.125 16.0607 1.37684 16.3125 1.6875 16.3125H2.8125C3.12316 16.3125 3.375 16.0607 3.375 15.75V3.9375C3.375 3.62684 3.12316 3.375 2.8125 3.375Z" stroke="#475569" stroke-linejoin="round"/>
<path d="M3.9375 7.875H8.4375M3.9375 14.0625H8.4375" stroke="#475569" stroke-linecap="round" stroke-linejoin="round"/>
<path d="M7.875 5.625H4.5C4.18934 5.625 3.9375 5.87684 3.9375 6.1875V15.75C3.9375 16.0607 4.18934 16.3125 4.5 16.3125H7.875C8.18566 16.3125 8.4375 16.0607 8.4375 15.75V6.1875C8.4375 5.87684 8.18566 5.625 7.875 5.625Z" stroke="#475569" stroke-linejoin="round"/>
<path d="M11.8125 1.6875H9.5625C9.25184 1.6875 9 1.93934 9 2.25V15.75C9 16.0607 9.25184 16.3125 9.5625 16.3125H11.8125C12.1232 16.3125 12.375 16.0607 12.375 15.75V2.25C12.375 1.93934 12.1232 1.6875 11.8125 1.6875Z" stroke="#475569" stroke-linejoin="round"/>
<path d="M14.852 3.37879L13.4317 3.52821C13.0408 3.56934 12.7574 3.93497 12.8014 4.34032L14.029 15.6462C14.0733 16.0516 14.4288 16.3493 14.8197 16.3086L16.24 16.1591C16.6309 16.118 16.9143 15.7524 16.8704 15.347L15.6445 4.04289C15.5984 3.63579 15.243 3.33766 14.852 3.37879Z" stroke="#475569" stroke-linejoin="round"/>
</svg>
