<svg width="30" height="30" viewBox="0 0 30 30" fill="none" xmlns="http://www.w3.org/2000/svg">
<path d="M8.03606 3.01615C8.19365 2.82806 8.27122 2.58568 8.25211 2.34104C8.23299 2.0964 8.11872 1.869 7.93383 1.70767C7.74893 1.54634 7.50815 1.46393 7.26318 1.47814C7.01821 1.49234 6.78857 1.60203 6.62356 1.78365L5.00856 3.63365C4.09279 4.68311 3.57511 6.02112 3.54606 7.41365L3.47481 10.8124C3.47227 10.9355 3.49399 11.0579 3.53876 11.1726C3.58352 11.2874 3.65044 11.3921 3.7357 11.481C3.82095 11.5698 3.92287 11.641 4.03564 11.6905C4.14841 11.74 4.26982 11.7667 4.39293 11.7693C4.51605 11.7718 4.63846 11.7501 4.75318 11.7053C4.86789 11.6606 4.97267 11.5936 5.06152 11.5084C5.15038 11.4231 5.22157 11.3212 5.27103 11.2084C5.3205 11.0957 5.34727 10.9743 5.34981 10.8512L5.41981 7.45365C5.43986 6.50081 5.79428 5.58535 6.42106 4.8674L8.03606 3.01615Z" fill="white"/>
<path fill-rule="evenodd" clip-rule="evenodd" d="M7.79643 9.625C7.88038 8.28767 8.47083 7.0326 9.44759 6.1153C10.4243 5.19799 11.714 4.68741 13.0539 4.6875H13.7502V3.75C13.7502 3.41848 13.8819 3.10054 14.1163 2.86612C14.3507 2.6317 14.6687 2.5 15.0002 2.5C15.3317 2.5 15.6496 2.6317 15.8841 2.86612C16.1185 3.10054 16.2502 3.41848 16.2502 3.75V4.6875H16.9464C18.2864 4.68741 19.576 5.19799 20.5528 6.1153C21.5295 7.0326 22.12 8.28767 22.2039 9.625L22.4802 14.0425C22.587 15.7265 23.1524 17.3492 24.1152 18.735C24.3144 19.0213 24.4361 19.3543 24.4685 19.7016C24.5009 20.0489 24.4429 20.3987 24.3 20.717C24.1572 21.0352 23.9345 21.311 23.6535 21.5177C23.3725 21.7243 23.0428 21.8548 22.6964 21.8962L18.4377 22.4062V23.75C18.4377 24.6617 18.0755 25.536 17.4309 26.1807C16.7862 26.8253 15.9119 27.1875 15.0002 27.1875C14.0885 27.1875 13.2142 26.8253 12.5695 26.1807C11.9248 25.536 11.5627 24.6617 11.5627 23.75V22.4062L7.30393 21.895C6.9578 21.8534 6.62832 21.723 6.34749 21.5164C6.06666 21.3098 5.84404 21.0341 5.70125 20.7161C5.55846 20.398 5.50035 20.0485 5.53258 19.7013C5.56481 19.3542 5.68628 19.0213 5.88518 18.735C6.84799 17.3492 7.41339 15.7265 7.52018 14.0425L7.79643 9.625ZM13.0539 6.5625C12.1909 6.5624 11.3603 6.89121 10.7312 7.48201C10.102 8.07281 9.72174 8.88116 9.66768 9.7425L9.39268 14.16C9.26416 16.1859 8.58376 18.1381 7.42518 19.805C7.41077 19.8257 7.40195 19.8498 7.3996 19.8749C7.39725 19.9 7.40143 19.9253 7.41175 19.9484C7.42207 19.9714 7.43816 19.9913 7.45848 20.0063C7.47879 20.0213 7.50263 20.0307 7.52768 20.0338L12.1989 20.595C14.0602 20.8175 15.9402 20.8175 17.8014 20.595L22.4727 20.0338C22.4977 20.0307 22.5216 20.0213 22.5419 20.0063C22.5622 19.9913 22.5783 19.9714 22.5886 19.9484C22.5989 19.9253 22.6031 19.9 22.6008 19.8749C22.5984 19.8498 22.5896 19.8257 22.5752 19.805C21.417 18.1379 20.7371 16.1858 20.6089 14.16L20.3327 9.7425C20.2786 8.88116 19.8983 8.07281 19.2692 7.48201C18.6401 6.89121 17.8095 6.5624 16.9464 6.5625H13.0539ZM15.0002 25.3125C14.1377 25.3125 13.4377 24.6125 13.4377 23.75V22.8125H16.5627V23.75C16.5627 24.6125 15.8627 25.3125 15.0002 25.3125Z" fill="white"/>
<path d="M22.0539 1.69388C21.8666 1.85734 21.752 2.08849 21.7351 2.33649C21.7182 2.58449 21.8005 2.82905 21.9639 3.01638L23.5789 4.86638C24.2055 5.58483 24.5595 6.50076 24.5789 7.45388L24.6501 10.8501C24.6553 11.0988 24.759 11.3352 24.9384 11.5074C25.1179 11.6795 25.3584 11.7734 25.607 11.7683C25.8557 11.7631 26.0921 11.6594 26.2643 11.48C26.4364 11.3005 26.5303 11.06 26.5251 10.8114L26.4539 7.41388C26.4248 6.02134 25.9072 4.68334 24.9914 3.63388L23.3764 1.78388C23.2129 1.59661 22.9818 1.48193 22.7338 1.46506C22.4858 1.44818 22.2412 1.53048 22.0539 1.69388Z" fill="white"/>
</svg>
