<svg width="22" height="22" viewBox="0 0 22 22" fill="none" xmlns="http://www.w3.org/2000/svg">
<g clip-path="url(#clip0_528_4314)">
<path d="M1.375 6.875V15.125H4.125V16.5H0V1.375H2.75V0H4.125V1.375H12.375V0H13.75V1.375H16.5V8.25H15.125V6.875H1.375ZM2.75 2.75H1.375V5.5H15.125V2.75H13.75V4.125H12.375V2.75H4.125V4.125H2.75V2.75ZM22 11.6445C22 11.7878 21.9714 11.9274 21.9141 12.0635C21.8568 12.1995 21.7744 12.3213 21.667 12.4287C20.1774 13.9183 18.7021 15.4007 17.2412 16.876C15.7803 18.3512 14.3014 19.8265 12.8047 21.3018C12.5755 21.5166 12.307 21.624 11.999 21.624C11.6911 21.624 11.4297 21.5166 11.2148 21.3018L6.7998 16.8975C6.69238 16.7972 6.61003 16.679 6.55273 16.543C6.49544 16.4069 6.4668 16.2601 6.4668 16.1025C6.4668 15.7946 6.5778 15.5296 6.7998 15.3076L8.70117 13.4062C8.92318 13.1842 9.18815 13.0732 9.49609 13.0732C9.79688 13.0732 10.0583 13.1842 10.2803 13.4062L11.999 15.125L18.1865 8.94824C18.4014 8.7334 18.6628 8.62598 18.9707 8.62598C19.1139 8.62598 19.2572 8.65462 19.4004 8.71191C19.5436 8.76921 19.6689 8.84798 19.7764 8.94824L21.667 10.8496C21.7673 10.9499 21.846 11.068 21.9033 11.2041C21.9606 11.3402 21.9928 11.487 22 11.6445ZM9.50684 17.6387L11.043 16.1025L9.49609 14.5557L7.95996 16.1025L9.50684 17.6387ZM20.5176 11.6338L18.9707 10.0869C17.5456 11.5192 16.1312 12.9408 14.7275 14.3516C13.3239 15.7624 11.9023 17.1839 10.4629 18.6162C10.7207 18.874 10.9749 19.1318 11.2256 19.3896C11.4762 19.6475 11.734 19.9053 11.999 20.1631C13.4313 18.738 14.8529 17.32 16.2637 15.9092C17.6745 14.4984 19.0924 13.0732 20.5176 11.6338Z" fill="#CC5500"/>
</g>
<defs>
<clipPath id="clip0_528_4314">
<rect width="22" height="22" fill="white"/>
</clipPath>
</defs>
</svg>
