<svg width="16" height="16" viewBox="0 0 16 16" fill="none" xmlns="http://www.w3.org/2000/svg">
<path d="M9.33125 2.66699C9.57178 2.66699 9.80783 2.73205 10.0144 2.85528C10.221 2.97852 10.3903 3.15533 10.5046 3.36699L10.8286 3.96699C10.9428 4.17865 11.1122 4.35547 11.3188 4.4787C11.5253 4.60193 11.7614 4.667 12.0019 4.66699H13.3333C13.6869 4.66699 14.026 4.80747 14.2761 5.05752C14.5261 5.30756 14.6666 5.6467 14.6666 6.00033V12.0003C14.6666 12.3539 14.5261 12.6931 14.2761 12.9431C14.026 13.1932 13.6869 13.3337 13.3333 13.3337H2.66659C2.31296 13.3337 1.97382 13.1932 1.72378 12.9431C1.47373 12.6931 1.33325 12.3539 1.33325 12.0003V6.00033C1.33325 5.6467 1.47373 5.30756 1.72378 5.05752C1.97382 4.80747 2.31296 4.66699 2.66659 4.66699H3.99792C4.2382 4.66701 4.47402 4.60209 4.68044 4.4791C4.88686 4.35612 5.05621 4.17964 5.17059 3.96833L5.49659 3.36566C5.61096 3.15435 5.78031 2.97787 5.98673 2.85488C6.19315 2.7319 6.42897 2.66698 6.66925 2.66699H9.33125Z" stroke="#CC5500" stroke-width="2" stroke-linecap="round" stroke-linejoin="round"/>
<path d="M8 10.667C9.10457 10.667 10 9.77156 10 8.66699C10 7.56242 9.10457 6.66699 8 6.66699C6.89543 6.66699 6 7.56242 6 8.66699C6 9.77156 6.89543 10.667 8 10.667Z" stroke="#CC5500" stroke-width="2" stroke-linecap="round" stroke-linejoin="round"/>
</svg>
