<svg width="20" height="20" viewBox="0 0 20 20" fill="none" xmlns="http://www.w3.org/2000/svg">
<path d="M11.6642 3.33301C11.9649 3.333 12.26 3.41433 12.5182 3.56837C12.7764 3.72241 12.9881 3.94343 13.1309 4.20801L13.5359 4.95801C13.6787 5.22258 13.8905 5.4436 14.1487 5.59764C14.4069 5.75168 14.7019 5.83301 15.0026 5.83301H16.6667C17.1088 5.83301 17.5327 6.0086 17.8453 6.32116C18.1578 6.63372 18.3334 7.05765 18.3334 7.49967V14.9997C18.3334 15.4417 18.1578 15.8656 17.8453 16.1782C17.5327 16.4907 17.1088 16.6663 16.6667 16.6663H3.33341C2.89139 16.6663 2.46746 16.4907 2.1549 16.1782C1.84234 15.8656 1.66675 15.4417 1.66675 14.9997V7.49967C1.66675 7.05765 1.84234 6.63372 2.1549 6.32116C2.46746 6.0086 2.89139 5.83301 3.33341 5.83301H4.99758C5.29793 5.83302 5.59271 5.75188 5.85073 5.59815C6.10876 5.44442 6.32045 5.22382 6.46341 4.95967L6.87091 4.20634C7.01388 3.9422 7.22557 3.7216 7.4836 3.56787C7.74162 3.41414 8.0364 3.33299 8.33675 3.33301H11.6642Z" stroke="white" stroke-width="2" stroke-linecap="round" stroke-linejoin="round"/>
<path d="M10 13.333C11.3807 13.333 12.5 12.2137 12.5 10.833C12.5 9.4523 11.3807 8.33301 10 8.33301C8.61929 8.33301 7.5 9.4523 7.5 10.833C7.5 12.2137 8.61929 13.333 10 13.333Z" stroke="white" stroke-width="2" stroke-linecap="round" stroke-linejoin="round"/>
</svg>
