<svg width="20" height="20" viewBox="0 0 20 20" fill="none" xmlns="http://www.w3.org/2000/svg">
<path fill-rule="evenodd" clip-rule="evenodd" d="M9.75 19.5C11.0304 19.5 12.2982 19.2478 13.4812 18.7578C14.6641 18.2678 15.7389 17.5497 16.6443 16.6443C17.5497 15.7389 18.2678 14.6641 18.7578 13.4812C19.2478 12.2982 19.5 11.0304 19.5 9.75C19.5 8.46961 19.2478 7.20176 18.7578 6.01884C18.2678 4.83591 17.5497 3.76108 16.6443 2.85571C15.7389 1.95034 14.6641 1.23216 13.4812 0.742174C12.2982 0.252191 11.0304 -1.90793e-08 9.75 0C7.16414 3.85323e-08 4.68419 1.02723 2.85571 2.85571C1.02723 4.68419 0 7.16414 0 9.75C0 12.3359 1.02723 14.8158 2.85571 16.6443C4.68419 18.4728 7.16414 19.5 9.75 19.5ZM9.49867 13.6933L14.9153 7.19333L13.2513 5.80667L8.593 11.3956L6.18258 8.98408L4.65075 10.5159L7.90075 13.7659L8.73925 14.6044L9.49867 13.6933Z" fill="#CC5500"/>
</svg>
