<svg width="36" height="52" viewBox="0 0 36 52" fill="none" xmlns="http://www.w3.org/2000/svg">
<rect x="9.99854" y="0.469727" width="3" height="13.7022" rx="1.5" transform="rotate(25.9623 9.99854 0.469727)" fill="#CC5500"/>
<rect x="17.9985" width="3" height="13.7022" rx="1.5" transform="rotate(25.9623 17.9985 0)" fill="#CC5500"/>
<rect x="25.9985" width="3" height="13.7022" rx="1.5" transform="rotate(25.9623 25.9985 0)" fill="#CC5500"/>
<path d="M14 46C10.1 46 6.79167 44.6417 4.075 41.925C1.35833 39.2083 0 35.9 0 32V20C0 18.9 0.391667 17.9583 1.175 17.175C1.95833 16.3917 2.9 16 4 16H29C30.9333 16 32.5833 16.6833 33.95 18.05C35.3167 19.4167 36 21.0667 36 23C36 24.9333 35.3167 26.5833 33.95 27.95C32.5833 29.3167 30.9333 30 29 30H28V32C28 35.9 26.6417 39.2083 23.925 41.925C21.2083 44.6417 17.9 46 14 46ZM4 26H24V20H4V26ZM14 42C16.7667 42 19.125 41.025 21.075 39.075C23.025 37.125 24 34.7667 24 32V30H4V32C4 34.7667 4.975 37.125 6.925 39.075C8.875 41.025 11.2333 42 14 42ZM28 26H29C29.8333 26 30.5417 25.7083 31.125 25.125C31.7083 24.5417 32 23.8333 32 23C32 22.1667 31.7083 21.4583 31.125 20.875C30.5417 20.2917 29.8333 20 29 20H28V26Z" fill="#CC5500"/>
<rect y="48" width="28" height="4" fill="#CC5500"/>
</svg>
