<svg width="16" height="16" viewBox="0 0 16 16" fill="none" xmlns="http://www.w3.org/2000/svg">
<g clip-path="url(#clip0_308_2153)">
<path fill-rule="evenodd" clip-rule="evenodd" d="M7.5 3C6.83696 3 6.20107 3.26339 5.73223 3.73223C5.26339 4.20107 5 4.83696 5 5.5V13.5C5 14.163 5.26339 14.7989 5.73223 15.2678C6.20107 15.7366 6.83696 16 7.5 16H13.5C14.163 16 14.7989 15.7366 15.2678 15.2678C15.7366 14.7989 16 14.163 16 13.5V5.5C16 4.83696 15.7366 4.20107 15.2678 3.73223C14.7989 3.26339 14.163 3 13.5 3H7.5ZM6 5.5C6 5.10218 6.15804 4.72064 6.43934 4.43934C6.72064 4.15804 7.10218 4 7.5 4H13.5C13.8978 4 14.2794 4.15804 14.5607 4.43934C14.842 4.72064 15 5.10218 15 5.5V13.5C15 13.8978 14.842 14.2794 14.5607 14.5607C14.2794 14.842 13.8978 15 13.5 15H7.5C7.10218 15 6.72064 14.842 6.43934 14.5607C6.15804 14.2794 6 13.8978 6 13.5V5.5Z" fill="#CC5500"/>
<path d="M8 6.5C8 6.36739 8.05268 6.24021 8.14645 6.14645C8.24021 6.05268 8.36739 6 8.5 6H12.5C12.6326 6 12.7598 6.05268 12.8536 6.14645C12.9473 6.24021 13 6.36739 13 6.5C13 6.63261 12.9473 6.75979 12.8536 6.85355C12.7598 6.94732 12.6326 7 12.5 7H8.5C8.36739 7 8.24021 6.94732 8.14645 6.85355C8.05268 6.75979 8 6.63261 8 6.5ZM8 9.5C8 9.36739 8.05268 9.24021 8.14645 9.14645C8.24021 9.05268 8.36739 9 8.5 9H12.5C12.6326 9 12.7598 9.05268 12.8536 9.14645C12.9473 9.24021 13 9.36739 13 9.5C13 9.63261 12.9473 9.75979 12.8536 9.85355C12.7598 9.94732 12.6326 10 12.5 10H8.5C8.36739 10 8.24021 9.94732 8.14645 9.85355C8.05268 9.75979 8 9.63261 8 9.5ZM8 12.5C8 12.3674 8.05268 12.2402 8.14645 12.1464C8.24021 12.0527 8.36739 12 8.5 12H11.5C11.6326 12 11.7598 12.0527 11.8536 12.1464C11.9473 12.2402 12 12.3674 12 12.5C12 12.6326 11.9473 12.7598 11.8536 12.8536C11.7598 12.9473 11.6326 13 11.5 13H8.5C8.36739 13 8.24021 12.9473 8.14645 12.8536C8.05268 12.7598 8 12.6326 8 12.5ZM0 2.5C0 1.83696 0.263392 1.20107 0.732233 0.732233C1.20107 0.263392 1.83696 0 2.5 0L8.5 0C9.479 0 10.33 0.562 10.74 1.38C10.892 1.683 10.636 1.998 10.297 1.998C10.07 1.998 9.875 1.849 9.748 1.66C9.61111 1.45677 9.42651 1.29016 9.21034 1.17476C8.99418 1.05936 8.75304 0.998669 8.508 0.998H2.508C2.11018 0.998 1.72864 1.15604 1.44734 1.43734C1.16604 1.71864 1.008 2.10018 1.008 2.498V10.498C1.008 10.8958 1.16604 11.2774 1.44734 11.5587C1.72864 11.84 2.11018 11.998 2.508 11.998H3.508C3.64061 11.998 3.76779 12.0507 3.86155 12.1444C3.95532 12.2382 4.008 12.3654 4.008 12.498C4.008 12.6306 3.95532 12.7578 3.86155 12.8516C3.76779 12.9453 3.64061 12.998 3.508 12.998H2.508C1.84496 12.998 1.20907 12.7346 0.740233 12.2658C0.271392 11.7969 0.008 11.161 0.008 10.498V2.498L0 2.5Z" fill="#CC5500"/>
</g>
<defs>
<clipPath id="clip0_308_2153">
<rect width="16" height="16" fill="white"/>
</clipPath>
</defs>
</svg>
