<svg width="20" height="20" viewBox="0 0 20 20" fill="none" xmlns="http://www.w3.org/2000/svg">
<path d="M9.16675 15.833H8.33342C8.0973 15.833 7.89953 15.753 7.74008 15.593C7.58064 15.433 7.50064 15.2352 7.50008 14.9997C7.49953 14.7641 7.57953 14.5663 7.74008 14.4063C7.90064 14.2463 8.09842 14.1663 8.33342 14.1663H9.16675V12.4163C8.06953 12.2219 7.17008 11.6975 6.46842 10.843C5.76675 9.98856 5.41619 8.99912 5.41675 7.87467C5.41675 6.61079 5.8648 5.53801 6.76092 4.65634C7.65703 3.77467 8.73675 3.33356 10.0001 3.33301C11.2634 3.33245 12.3434 3.77356 13.2401 4.65634C14.1367 5.53912 14.5845 6.6119 14.5834 7.87467C14.5834 8.99967 14.2326 9.9894 13.5309 10.8438C12.8292 11.6983 11.9301 12.2225 10.8334 12.4163V14.1663H11.6667C11.9029 14.1663 12.1009 14.2463 12.2609 14.4063C12.4209 14.5663 12.5006 14.7641 12.5001 14.9997C12.4995 15.2352 12.4195 15.4333 12.2601 15.5938C12.1006 15.7544 11.9029 15.8341 11.6667 15.833H10.8334V16.6663C10.8334 16.9025 10.7534 17.1005 10.5934 17.2605C10.4334 17.4205 10.2356 17.5002 10.0001 17.4997C9.76453 17.4991 9.56675 17.4191 9.40675 17.2597C9.24675 17.1002 9.16675 16.9025 9.16675 16.6663V15.833ZM12.0626 9.97884C12.632 9.4094 12.9167 8.7219 12.9167 7.91634C12.9167 7.11079 12.632 6.42329 12.0626 5.85384C11.4931 5.2844 10.8056 4.99968 10.0001 4.99968C9.19453 4.99968 8.50703 5.2844 7.93758 5.85384C7.36814 6.42329 7.08342 7.11079 7.08342 7.91634C7.08342 8.7219 7.36814 9.4094 7.93758 9.97884C8.50703 10.5483 9.19453 10.833 10.0001 10.833C10.8056 10.833 11.4931 10.5483 12.0626 9.97884Z" fill="white"/>
</svg>
