<svg width="25" height="20" viewBox="0 0 25 20" fill="none" xmlns="http://www.w3.org/2000/svg">
<g clip-path="url(#clip0_409_6128)">
<path d="M13.2985 16.3901C13.2985 14.2538 10.9163 12.5169 8.77926 12.5169C6.64218 12.5169 4.26074 14.2531 4.26074 16.3901M8.77926 10.5803C9.11841 10.5803 9.45425 10.5135 9.76759 10.3837C10.0809 10.2539 10.3656 10.0637 10.6055 9.82387C10.8453 9.58405 11.0355 9.29935 11.1653 8.98601C11.2951 8.67267 11.3619 8.33683 11.3619 7.99768C11.3619 7.65852 11.2951 7.32268 11.1653 7.00934C11.0355 6.696 10.8453 6.4113 10.6055 6.17148C10.3656 5.93166 10.0809 5.74142 9.76759 5.61163C9.45425 5.48184 9.11841 5.41504 8.77926 5.41504C8.0943 5.41504 7.4374 5.68714 6.95306 6.17148C6.46872 6.65581 6.19662 7.31272 6.19662 7.99768C6.19662 8.68263 6.46872 9.33954 6.95306 9.82387C7.4374 10.3082 8.0943 10.5803 8.77926 10.5803Z" stroke="#CC5500" stroke-width="1.09744" stroke-linecap="round" stroke-linejoin="round"/>
</g>
<g clip-path="url(#clip1_409_6128)">
<path d="M22.1645 6.49892V11.7762H14.7763V6.49892H22.1645ZM22.6922 5.97119H14.2485V12.3039H22.6922V5.97119Z" fill="#CC5500"/>
<path d="M18.4706 7.55434H21.637V8.08207H18.4706V7.55434ZM18.4706 8.6098H21.637V9.13753H18.4706V8.6098ZM18.4706 9.66526H20.0538V10.193H18.4706V9.66526ZM17.0985 8.6098H16.8874V8.55703C17.204 8.45148 17.4151 8.13484 17.4151 7.81821C17.4151 7.39602 17.0457 7.02661 16.6235 7.02661C16.2013 7.02661 15.8319 7.39602 15.8319 7.81821C15.8319 8.18762 16.043 8.45148 16.3597 8.55703V8.6098H16.1486C15.6736 8.6098 15.3042 8.97921 15.3042 9.45417V10.7207H17.9428V9.45417C17.9428 8.97921 17.5734 8.6098 17.0985 8.6098Z" fill="#CC5500"/>
</g>
<path d="M24.4138 5.76694V3.67929C24.4138 2.84904 24.0107 2.05279 23.2931 1.46572C22.5756 0.878643 21.6024 0.548828 20.5877 0.548828H16.7603M16.7603 19.3336H20.5877C21.6024 19.3336 22.5756 19.0038 23.2931 18.4167C24.0107 17.8297 24.4138 17.0334 24.4138 16.2032V14.1155M1.45459 14.1155V16.2032C1.45459 17.0334 1.8577 17.8297 2.57523 18.4167C3.29277 19.0038 4.26596 19.3336 5.28071 19.3336H9.10807M9.10807 0.548828H5.28071C4.77826 0.548828 4.28072 0.6298 3.81652 0.78712C3.35231 0.944441 2.93052 1.17503 2.57523 1.46572C2.21995 1.75641 1.93812 2.10151 1.74584 2.48131C1.55356 2.86112 1.45459 3.26819 1.45459 3.67929V5.76694" stroke="#CC5500" stroke-width="1.09744" stroke-linecap="round" stroke-linejoin="round"/>
<defs>
<clipPath id="clip0_409_6128">
<rect width="17.559" height="17.559" fill="white" transform="translate(0 0.16626)"/>
</clipPath>
<clipPath id="clip1_409_6128">
<rect width="8.44367" height="8.44367" fill="white" transform="translate(14.2485 4.91577)"/>
</clipPath>
</defs>
</svg>
