<svg width="16" height="16" viewBox="0 0 16 16" fill="none" xmlns="http://www.w3.org/2000/svg">
<path d="M2.3998 4.8C2.3998 3.2525 3.6523 2 5.1998 2C6.7473 2 7.9998 3.2525 7.9998 4.8C7.9998 6.3475 6.7473 7.6 5.1998 7.6C3.6523 7.6 2.3998 6.3475 2.3998 4.8ZM0.799805 13.2C0.799805 10.77 2.7698 8.8 5.1998 8.8C7.6298 8.8 9.5998 10.77 9.5998 13.2V13.35C9.5998 13.93 9.1298 14.4 8.5498 14.4H1.8498C1.2698 14.4 0.799805 13.93 0.799805 13.35V13.2ZM11.5998 3.2C12.9248 3.2 13.9998 4.275 13.9998 5.6C13.9998 6.925 12.9248 8 11.5998 8C10.2748 8 9.1998 6.925 9.1998 5.6C9.1998 4.275 10.2748 3.2 11.5998 3.2ZM11.5998 9.2C13.5873 9.2 15.1998 10.8125 15.1998 12.8V13.36C15.1998 13.935 14.7348 14.4 14.1598 14.4H10.5398C10.7048 14.0875 10.7998 13.73 10.7998 13.35V13.2C10.7998 11.9125 10.3648 10.7275 9.6373 9.7825C10.2023 9.415 10.8773 9.2 11.5998 9.2Z" fill="white"/>
</svg>
