<svg width="25" height="25" viewBox="0 0 25 25" fill="none" xmlns="http://www.w3.org/2000/svg">
<path d="M7.03125 5.46875C4.45313 5.46875 2.34375 7.57813 2.34375 10.1562C2.34375 11.7062 3.10703 13.0859 4.27266 13.9406C2.2125 14.9625 0.78125 17.0813 0.78125 19.5312H2.34375C2.34375 16.9344 4.43438 14.8438 7.03125 14.8438C9.62812 14.8438 11.7188 16.9344 11.7188 19.5312H13.2812C13.2812 16.9344 15.3719 14.8438 17.9688 14.8438C20.5656 14.8438 22.6562 16.9344 22.6562 19.5312H24.2188C24.2188 17.0805 22.7875 14.9625 20.7273 13.9406C21.3241 13.5062 21.8099 12.9371 22.145 12.2795C22.4802 11.6218 22.6554 10.8944 22.6562 10.1562C22.6563 7.57813 20.5469 5.46875 17.9688 5.46875C15.3906 5.46875 13.2812 7.57813 13.2812 10.1562C13.2812 11.7062 14.0445 13.0859 15.2102 13.9406C14.0686 14.5017 13.1238 15.3954 12.5 16.5039C11.8762 15.3954 10.9314 14.5017 9.78984 13.9406C10.3866 13.5062 10.8724 12.9371 11.2075 12.2795C11.5427 11.6218 11.7179 10.8944 11.7188 10.1562C11.7187 7.57813 9.60937 5.46875 7.03125 5.46875ZM7.03125 7.03125C8.76797 7.03125 10.1562 8.41953 10.1562 10.1562C10.1562 11.893 8.76797 13.2812 7.03125 13.2812C5.29453 13.2812 3.90625 11.893 3.90625 10.1562C3.90625 8.41953 5.29453 7.03125 7.03125 7.03125ZM17.9688 7.03125C19.7055 7.03125 21.0938 8.41953 21.0938 10.1562C21.0938 11.893 19.7055 13.2812 17.9688 13.2812C16.232 13.2812 14.8438 11.893 14.8438 10.1562C14.8438 8.41953 16.232 7.03125 17.9688 7.03125Z" fill="white"/>
</svg>
