<svg width="22" height="18" viewBox="0 0 22 18" fill="none" xmlns="http://www.w3.org/2000/svg">
<g clip-path="url(#clip0_1300_3565)">
<path d="M20.5333 13.125V1.875C20.5333 1.77344 20.497 1.68555 20.4245 1.61133C20.3519 1.53711 20.266 1.5 20.1667 1.5H1.83333C1.73403 1.5 1.64809 1.53711 1.57552 1.61133C1.50295 1.68555 1.46667 1.77344 1.46667 1.875V13.125C1.46667 13.2266 1.50295 13.3145 1.57552 13.3887C1.64809 13.4629 1.73403 13.5 1.83333 13.5H20.1667C20.266 13.5 20.3519 13.4629 20.4245 13.3887C20.497 13.3145 20.5333 13.2266 20.5333 13.125ZM22 1.875V13.125C22 13.6406 21.8205 14.082 21.4615 14.4492C21.1024 14.8164 20.6708 15 20.1667 15H11.7333V16.5H15.7667C15.8736 16.5 15.9615 16.5352 16.0302 16.6055C16.099 16.6758 16.1333 16.7656 16.1333 16.875V17.625C16.1333 17.7344 16.099 17.8242 16.0302 17.8945C15.9615 17.9648 15.8736 18 15.7667 18H6.23333C6.12639 18 6.03854 17.9648 5.96979 17.8945C5.90104 17.8242 5.86667 17.7344 5.86667 17.625V16.875C5.86667 16.7656 5.90104 16.6758 5.96979 16.6055C6.03854 16.5352 6.12639 16.5 6.23333 16.5H10.2667V15H1.83333C1.32917 15 0.897569 14.8164 0.538542 14.4492C0.179514 14.082 0 13.6406 0 13.125V1.875C0 1.35938 0.179514 0.917969 0.538542 0.550781C0.897569 0.183594 1.32917 0 1.83333 0H20.1667C20.6708 0 21.1024 0.183594 21.4615 0.550781C21.8205 0.917969 22 1.35938 22 1.875Z" fill="white"/>
</g>
<defs>
<clipPath id="clip0_1300_3565">
<rect width="22" height="18" fill="white"/>
</clipPath>
</defs>
</svg>
