<svg width="25" height="25" viewBox="0 0 25 25" fill="none" xmlns="http://www.w3.org/2000/svg">
<path fill-rule="evenodd" clip-rule="evenodd" d="M5.29098 5.28023C9.2441 1.33231 15.6712 1.37398 19.6483 5.35211C23.6274 9.33127 23.6691 15.7615 19.7149 19.7146C15.7608 23.6677 9.3316 23.6271 5.35244 19.6479C4.23303 18.5334 3.38726 17.1745 2.88156 15.678C2.37585 14.1814 2.22397 12.588 2.43785 11.0229C2.46589 10.8175 2.57438 10.6317 2.73946 10.5063C2.90453 10.3809 3.11266 10.3261 3.31806 10.3542C3.52347 10.3822 3.70932 10.4907 3.83473 10.6558C3.96015 10.8209 4.01485 11.029 3.98681 11.2344C3.80523 12.5608 3.93377 13.9112 4.36232 15.1795C4.79087 16.4478 5.50775 17.5994 6.4566 18.5438C9.83681 21.9229 15.2774 21.9427 18.6108 18.6104C21.9431 15.2771 21.9233 9.83648 18.5441 6.45627C15.166 3.07919 9.72848 3.05731 6.39514 6.38544L7.17431 6.38856C7.27691 6.38904 7.3784 6.40972 7.47301 6.44943C7.56761 6.48913 7.65346 6.54708 7.72567 6.61997C7.79788 6.69285 7.85502 6.77924 7.89384 6.87421C7.93266 6.96918 7.95239 7.07086 7.95192 7.17346C7.95144 7.27605 7.93076 7.37755 7.89105 7.47215C7.85135 7.56676 7.7934 7.65261 7.72051 7.72482C7.64763 7.79703 7.56124 7.85417 7.46627 7.89299C7.3713 7.93181 7.26962 7.95154 7.16702 7.95106L4.51494 7.93856C4.309 7.93747 4.11182 7.8551 3.9663 7.70938C3.82078 7.56366 3.73867 7.36638 3.73785 7.16044L3.72431 4.51044C3.72376 4.40784 3.74343 4.30615 3.78219 4.21115C3.82094 4.11616 3.87803 4.02972 3.95019 3.95679C4.02235 3.88386 4.10816 3.82585 4.20274 3.78609C4.29732 3.74632 4.3988 3.72557 4.5014 3.72502C4.60399 3.72448 4.70569 3.74414 4.80068 3.7829C4.89568 3.82165 4.98211 3.87874 5.05504 3.9509C5.12798 4.02306 5.18598 4.10887 5.22575 4.20345C5.26552 4.29803 5.28626 4.39951 5.28681 4.50211L5.29098 5.28023ZM12.4993 7.55106C12.7065 7.55106 12.9052 7.63337 13.0517 7.77989C13.1983 7.9264 13.2806 8.12511 13.2806 8.33231V12.1761L15.6566 14.5511C15.7313 14.6231 15.7908 14.7093 15.8318 14.8046C15.8728 14.8999 15.8944 15.0024 15.8953 15.1061C15.8963 15.2098 15.8766 15.3127 15.8373 15.4088C15.7981 15.5048 15.7401 15.592 15.6668 15.6654C15.5935 15.7388 15.5063 15.7969 15.4103 15.8362C15.3143 15.8755 15.2114 15.8953 15.1077 15.8945C15.004 15.8936 14.9014 15.8721 14.8061 15.8312C14.7108 15.7903 14.6245 15.7309 14.5524 15.6563L11.7191 12.8229V8.33336C11.7191 8.12615 11.8014 7.92744 11.9479 7.78093C12.0944 7.63442 12.2932 7.55211 12.5004 7.55211" fill="#475569"/>
</svg>
