<svg width="25" height="25" viewBox="0 0 25 25" fill="none" xmlns="http://www.w3.org/2000/svg">
<path d="M6.25033 19.7918H9.37533V14.5835C9.37533 14.2884 9.47533 14.0411 9.67533 13.8418C9.87533 13.6425 10.1225 13.5425 10.417 13.5418H14.5837C14.8788 13.5418 15.1264 13.6418 15.3264 13.8418C15.5264 14.0418 15.626 14.2891 15.6253 14.5835V19.7918H18.7503V10.4168L12.5003 5.72933L6.25033 10.4168V19.7918ZM4.16699 19.7918V10.4168C4.16699 10.087 4.24095 9.77447 4.38887 9.47933C4.53678 9.18419 4.7406 8.94113 5.00033 8.75016L11.2503 4.06266C11.6149 3.78489 12.0316 3.646 12.5003 3.646C12.9691 3.646 13.3857 3.78489 13.7503 4.06266L20.0003 8.75016C20.2607 8.94113 20.4649 9.18419 20.6128 9.47933C20.7607 9.77447 20.8344 10.087 20.8337 10.4168V19.7918C20.8337 20.3647 20.6295 20.8554 20.2212 21.2637C19.8128 21.672 19.3225 21.8759 18.7503 21.8752H14.5837C14.2885 21.8752 14.0413 21.7752 13.842 21.5752C13.6427 21.3752 13.5427 21.1279 13.542 20.8335V15.6252H11.4587V20.8335C11.4587 21.1286 11.3587 21.3762 11.1587 21.5762C10.9587 21.7762 10.7114 21.8759 10.417 21.8752H6.25033C5.67741 21.8752 5.18713 21.6713 4.77949 21.2637C4.37185 20.8561 4.16769 20.3654 4.16699 19.7918Z" fill="white"/>
</svg>
