<svg width="25" height="25" viewBox="0 0 25 25" fill="none" xmlns="http://www.w3.org/2000/svg">
<path d="M6.25033 19.7913H9.37533V14.583C9.37533 14.2879 9.47533 14.0406 9.67533 13.8413C9.87533 13.642 10.1225 13.542 10.417 13.5413H14.5837C14.8788 13.5413 15.1264 13.6413 15.3264 13.8413C15.5264 14.0413 15.626 14.2886 15.6253 14.583V19.7913H18.7503V10.4163L12.5003 5.72884L6.25033 10.4163V19.7913ZM4.16699 19.7913V10.4163C4.16699 10.0865 4.24095 9.77398 4.38887 9.47884C4.53678 9.1837 4.7406 8.94065 5.00033 8.74967L11.2503 4.06217C11.6149 3.7844 12.0316 3.64551 12.5003 3.64551C12.9691 3.64551 13.3857 3.7844 13.7503 4.06217L20.0003 8.74967C20.2607 8.94065 20.4649 9.1837 20.6128 9.47884C20.7607 9.77398 20.8344 10.0865 20.8337 10.4163V19.7913C20.8337 20.3643 20.6295 20.8549 20.2212 21.2632C19.8128 21.6715 19.3225 21.8754 18.7503 21.8747H14.5837C14.2885 21.8747 14.0413 21.7747 13.842 21.5747C13.6427 21.3747 13.5427 21.1275 13.542 20.833V15.6247H11.4587V20.833C11.4587 21.1281 11.3587 21.3757 11.1587 21.5757C10.9587 21.7757 10.7114 21.8754 10.417 21.8747H6.25033C5.67741 21.8747 5.18713 21.6709 4.77949 21.2632C4.37185 20.8556 4.16769 20.365 4.16699 19.7913Z" fill="#475569"/>
</svg>
