<svg width="20" height="15" viewBox="0 0 20 15" fill="none" xmlns="http://www.w3.org/2000/svg">
<path d="M0 14.1818V10.6364C0 10.1341 0.17358 9.71307 0.520739 9.37329C0.867898 9.03352 1.28523 8.86364 1.77273 8.86364H4.67557C4.97102 8.86364 5.2517 8.9375 5.51761 9.08523C5.78352 9.23295 5.99773 9.43239 6.16023 9.68352C6.58864 10.2597 7.11676 10.7102 7.7446 11.0352C8.37244 11.3602 9.04091 11.5227 9.75 11.5227C10.4739 11.5227 11.1497 11.3602 11.7776 11.0352C12.4054 10.7102 12.9261 10.2597 13.3398 9.68352C13.5318 9.43239 13.7571 9.23295 14.0156 9.08523C14.2741 8.9375 14.5437 8.86364 14.8244 8.86364H17.7273C18.2295 8.86364 18.6506 9.03352 18.9903 9.37329C19.3301 9.71307 19.5 10.1341 19.5 10.6364V14.1818H13.2955V12.1653C12.7784 12.5347 12.2207 12.8153 11.6224 13.0074C11.0241 13.1994 10.4 13.2955 9.75 13.2955C9.11477 13.2955 8.49432 13.1957 7.88864 12.9963C7.28295 12.7969 6.72159 12.5125 6.20455 12.1432V14.1818H0ZM9.75 10.6364C9.18864 10.6364 8.65682 10.5071 8.15454 10.2486C7.65227 9.99006 7.23125 9.63182 6.89148 9.17386C6.64034 8.80455 6.32642 8.51278 5.94972 8.29858C5.57301 8.08437 5.16307 7.97727 4.71989 7.97727C5.04489 7.43068 5.73182 6.99858 6.78068 6.68097C7.82955 6.36335 8.81932 6.20455 9.75 6.20455C10.6807 6.20455 11.6705 6.36335 12.7193 6.68097C13.7682 6.99858 14.4551 7.43068 14.7801 7.97727C14.3517 7.97727 13.9455 8.08437 13.5614 8.29858C13.1773 8.51278 12.8597 8.80455 12.6085 9.17386C12.2835 9.64659 11.8699 10.0085 11.3676 10.2597C10.8653 10.5108 10.3261 10.6364 9.75 10.6364ZM2.65909 7.97727C1.92045 7.97727 1.29261 7.71875 0.775568 7.2017C0.258523 6.68466 0 6.05682 0 5.31818C0 4.56477 0.258523 3.93324 0.775568 3.42358C1.29261 2.91392 1.92045 2.65909 2.65909 2.65909C3.4125 2.65909 4.04403 2.91392 4.55369 3.42358C5.06335 3.93324 5.31818 4.56477 5.31818 5.31818C5.31818 6.05682 5.06335 6.68466 4.55369 7.2017C4.04403 7.71875 3.4125 7.97727 2.65909 7.97727ZM16.8409 7.97727C16.1023 7.97727 15.4744 7.71875 14.9574 7.2017C14.4403 6.68466 14.1818 6.05682 14.1818 5.31818C14.1818 4.56477 14.4403 3.93324 14.9574 3.42358C15.4744 2.91392 16.1023 2.65909 16.8409 2.65909C17.5943 2.65909 18.2259 2.91392 18.7355 3.42358C19.2452 3.93324 19.5 4.56477 19.5 5.31818C19.5 6.05682 19.2452 6.68466 18.7355 7.2017C18.2259 7.71875 17.5943 7.97727 16.8409 7.97727ZM9.75 5.31818C9.01136 5.31818 8.38352 5.05966 7.86648 4.54261C7.34943 4.02557 7.09091 3.39773 7.09091 2.65909C7.09091 1.90568 7.34943 1.27415 7.86648 0.764489C8.38352 0.25483 9.01136 0 9.75 0C10.5034 0 11.1349 0.25483 11.6446 0.764489C12.1543 1.27415 12.4091 1.90568 12.4091 2.65909C12.4091 3.39773 12.1543 4.02557 11.6446 4.54261C11.1349 5.05966 10.5034 5.31818 9.75 5.31818Z" fill="#CC5500"/>
</svg>
