<svg width="24" height="24" viewBox="0 0 24 24" fill="none" xmlns="http://www.w3.org/2000/svg">
<path d="M16.5 17L17.499 18M17.499 18L18.5 19M17.499 18L18.5 17M17.499 18L16.5 19M21.5 18C21.5 19.0609 21.0786 20.0783 20.3284 20.8284C19.5783 21.5786 18.5609 22 17.5 22C16.4391 22 15.4217 21.5786 14.6716 20.8284C13.9214 20.0783 13.5 19.0609 13.5 18C13.5 16.9391 13.9214 15.9217 14.6716 15.1716C15.4217 14.4214 16.4391 14 17.5 14C18.5609 14 19.5783 14.4214 20.3284 15.1716C21.0786 15.9217 21.5 16.9391 21.5 18Z" stroke="#CC5500" stroke-width="1.5" stroke-linecap="round"/>
<path d="M6.953 17.4871C6.88393 17.5586 6.82976 17.6431 6.79366 17.7357C6.75755 17.8284 6.74022 17.9273 6.74267 18.0267C6.74513 18.126 6.76732 18.224 6.80796 18.3147C6.8486 18.4054 6.90687 18.4872 6.97939 18.5552C7.05191 18.6232 7.13723 18.6761 7.23038 18.7109C7.32353 18.7456 7.42267 18.7615 7.52201 18.7575C7.62135 18.7536 7.71893 18.73 7.80905 18.688C7.89918 18.6461 7.98007 18.5866 8.047 18.5131L6.953 17.4871ZM10.579 17.2461C10.677 17.2357 10.7719 17.2061 10.8585 17.1591C10.945 17.112 11.0214 17.0483 11.0834 16.9717C11.1453 16.8951 11.1915 16.8071 11.2194 16.7126C11.2474 16.6181 11.2564 16.519 11.246 16.4211C11.2356 16.3231 11.2061 16.2281 11.159 16.1416C11.1119 16.0551 11.0483 15.9786 10.9716 15.9167C10.895 15.8548 10.807 15.8085 10.7125 15.7806C10.618 15.7527 10.519 15.7437 10.421 15.7541L10.579 17.2461ZM8.503 4.75008C8.60149 4.74968 8.69894 4.72989 8.78979 4.69184C8.88063 4.65378 8.96309 4.59821 9.03245 4.52829C9.10182 4.45836 9.15673 4.37546 9.19406 4.28432C9.23139 4.19317 9.2504 4.09557 9.25 3.99708C9.24961 3.89858 9.22982 3.80114 9.19176 3.71029C9.15371 3.61945 9.09813 3.53699 9.02821 3.46762C8.95829 3.39826 8.87539 3.34335 8.78424 3.30602C8.6931 3.26869 8.59549 3.24968 8.497 3.25008L8.503 4.75008ZM13.503 3.25008C13.4045 3.24968 13.3069 3.26869 13.2158 3.30602C13.1246 3.34335 13.0417 3.39826 12.9718 3.46762C12.9019 3.53699 12.8463 3.61945 12.8082 3.71029C12.7702 3.80114 12.7504 3.89858 12.75 3.99708C12.7496 4.09557 12.7686 4.19317 12.8059 4.28432C12.8433 4.37546 12.8982 4.45836 12.9676 4.52829C13.0369 4.59821 13.1194 4.65378 13.2102 4.69184C13.3011 4.72989 13.3985 4.74968 13.497 4.75008L13.503 3.25008ZM18.75 12.0001C18.75 12.199 18.829 12.3898 18.9697 12.5304C19.1103 12.6711 19.3011 12.7501 19.5 12.7501C19.6989 12.7501 19.8897 12.6711 20.0303 12.5304C20.171 12.3898 20.25 12.199 20.25 12.0001H18.75ZM10.5 22.7501C10.6989 22.7501 10.8897 22.6711 11.0303 22.5304C11.171 22.3898 11.25 22.199 11.25 22.0001C11.25 21.8012 11.171 21.6104 11.0303 21.4697C10.8897 21.3291 10.6989 21.2501 10.5 21.2501V22.7501ZM12.25 12.0001C12.25 12.7021 11.693 13.2501 11.031 13.2501V14.7501C12.544 14.7501 13.75 13.5081 13.75 12.0001H12.25ZM11.031 13.2501C10.37 13.2501 9.813 12.7021 9.813 12.0001H8.313C8.313 13.5081 9.519 14.7501 11.031 14.7501V13.2501ZM9.814 12.0001C9.814 11.2981 10.371 10.7501 11.032 10.7501V9.25008C9.52 9.25008 8.314 10.4921 8.314 12.0001H9.814ZM11.032 10.7501C11.694 10.7501 12.251 11.2981 12.251 12.0001H13.751C13.751 10.4921 12.545 9.25008 11.032 9.25008V10.7501ZM8.048 18.5131C8.71263 17.8006 9.61031 17.3509 10.579 17.2461L10.422 15.7541C9.09552 15.8969 7.86364 16.512 6.953 17.4871L8.048 18.5131ZM3.25 15.3681V10.6321H1.75V15.3681H3.25ZM9.5 21.2501C7.83 21.2501 6.649 21.2491 5.754 21.1351C4.877 21.0231 4.39 20.8151 4.041 20.4851L3.009 21.5731C3.686 22.2141 4.536 22.4911 5.565 22.6231C6.576 22.7511 7.87 22.7501 9.5 22.7501V21.2501ZM1.75 15.3681C1.75 16.9091 1.748 18.1441 1.886 19.1121C2.026 20.1061 2.327 20.9271 3.009 21.5731L4.041 20.4841C3.698 20.1591 3.486 19.7141 3.371 18.9011C3.251 18.0631 3.25 16.9541 3.25 15.3681H1.75ZM20.25 10.6321C20.25 9.09108 20.252 7.85608 20.114 6.88808C19.974 5.89408 19.673 5.07308 18.991 4.42708L17.959 5.51508C18.302 5.84008 18.514 6.28608 18.629 7.09908C18.749 7.93708 18.75 9.04608 18.75 10.6321H20.25ZM3.25 10.6321C3.25 9.04608 3.252 7.93708 3.37 7.09908C3.486 6.28708 3.698 5.84108 4.04 5.51608L3.01 4.42608C2.327 5.07308 2.027 5.89408 1.886 6.88808C1.748 7.85608 1.75 9.09108 1.75 10.6321H3.25ZM8.497 3.25208C7.183 3.25608 6.109 3.28008 5.241 3.42508C4.355 3.57208 3.613 3.85508 3.009 4.42708L4.041 5.51508C4.353 5.21908 4.776 5.02308 5.487 4.90408C6.217 4.78308 7.173 4.75508 8.503 4.75008L8.497 3.25208ZM13.497 4.75208C14.827 4.75608 15.783 4.78308 16.513 4.90408C17.224 5.02308 17.647 5.21908 17.959 5.51508L18.991 4.42708C18.387 3.85608 17.645 3.57208 16.759 3.42508C15.891 3.28008 14.817 3.25508 13.503 3.25008L13.497 4.75208ZM18.75 10.6321V12.0001H20.25V10.6321H18.75ZM10.5 21.2501H9.5V22.7501H10.5V21.2501ZM12.497 3.80008L12.58 4.16008L14.042 3.82208L13.959 3.46308L12.497 3.80008ZM11.498 5.25008H10.502V6.75008H11.498V5.25008ZM9.42 4.16008L9.503 3.80008L8.041 3.46308L7.958 3.82308L9.42 4.16008ZM10.502 5.25008C10.071 5.25008 9.797 5.25008 9.594 5.23108C9.51689 5.22512 9.44054 5.21173 9.366 5.19108L9.358 5.18808L8.58 6.47008C8.865 6.64308 9.174 6.70008 9.463 6.72608C9.747 6.75108 10.098 6.75008 10.502 6.75008V5.25008ZM7.958 3.82308C7.877 4.17408 7.801 4.49608 7.768 4.76508C7.735 5.04408 7.733 5.36608 7.879 5.68808L9.245 5.06808C9.263 5.10808 9.239 5.10408 9.258 4.94508C9.278 4.77508 9.331 4.54408 9.42 4.16008L7.958 3.82308ZM9.358 5.18808C9.30987 5.15941 9.27072 5.11784 9.245 5.06808L7.879 5.68808C8.029 6.01808 8.278 6.28608 8.58 6.47008L9.358 5.18808ZM12.58 4.16008C12.67 4.54408 12.721 4.77508 12.742 4.94508C12.762 5.10508 12.737 5.10708 12.755 5.06808L14.121 5.68808C14.267 5.36608 14.265 5.04408 14.231 4.76508C14.199 4.49608 14.123 4.17508 14.041 3.82308L12.58 4.16008ZM11.498 6.75008C11.902 6.75008 12.253 6.75008 12.538 6.72608C12.826 6.70008 13.136 6.64308 13.421 6.47008L12.642 5.18808H12.64L12.634 5.19108L12.6 5.20208C12.563 5.21208 12.503 5.22308 12.406 5.23208C12.203 5.24908 11.929 5.25008 11.498 5.25008V6.75008ZM12.755 5.06808C12.7293 5.11784 12.6901 5.15941 12.642 5.18808L13.421 6.47008C13.724 6.28608 13.972 6.01708 14.121 5.68808L12.755 5.06808ZM11 2.75008C11.51 2.75008 11.64 2.75508 11.74 2.77808L12.077 1.31608C11.77 1.24608 11.431 1.25008 11 1.25008V2.75008ZM13.959 3.46308C13.873 3.09308 13.804 2.76308 13.651 2.48208L12.333 3.19808C12.364 3.25608 12.391 3.34108 12.497 3.80108L13.959 3.46308ZM11.74 2.77808C12.023 2.84308 12.23 3.00808 12.333 3.19808L13.651 2.48208C13.4854 2.18797 13.2596 1.9321 12.9884 1.73118C12.7172 1.53027 12.4066 1.38882 12.077 1.31608L11.74 2.77808ZM11 1.25008C10.569 1.25008 10.23 1.24508 9.923 1.31608L10.26 2.77808C10.36 2.75508 10.49 2.75008 11 2.75008V1.25008ZM9.503 3.80008C9.609 3.34108 9.636 3.25608 9.667 3.19808L8.35 2.48208C8.198 2.76208 8.128 3.09208 8.042 3.46208L9.503 3.80008ZM9.923 1.31608C9.5934 1.38882 9.28285 1.53027 9.01163 1.73118C8.74041 1.9321 8.51462 2.18797 8.349 2.48208L9.667 3.19808C9.73122 3.09069 9.81712 2.99788 9.91923 2.92557C10.0213 2.85325 10.1374 2.80302 10.26 2.77808L9.923 1.31608Z" fill="#CC5500"/>
<path d="M7.5 18C8.417 17.023 9.723 16.512 11.031 16.5M13 12C13 13.105 12.119 14 11.031 14C9.944 14 9.063 13.105 9.063 12C9.063 10.895 9.944 10 11.031 10C12.12 10 13 10.895 13 12Z" stroke="#CC5500" stroke-width="1.5" stroke-linecap="round"/>
<path d="M8.5 4.00198C5.856 4.01198 4.441 4.10398 3.525 4.97198C2.5 5.94298 2.5 7.50598 2.5 10.632V15.369C2.5 18.495 2.5 20.059 3.525 21.029C4.55 22.001 6.2 22.001 9.5 22.001H11.5M13.5 4.00098C16.144 4.01098 17.559 4.10398 18.475 4.97098C19.5 5.94298 19.5 7.50598 19.5 10.632V11.501" stroke="#CC5500" stroke-width="1.5" stroke-linecap="round" stroke-linejoin="round"/>
<path d="M8.77199 3.632C8.86799 3.217 8.91599 3.009 9.00799 2.84C9.12236 2.63891 9.27799 2.4643 9.46464 2.32763C9.65129 2.19095 9.86475 2.09532 10.091 2.047C10.294 2 10.53 2 11 2C11.47 2 11.706 2 11.909 2.047C12.1352 2.09532 12.3487 2.19095 12.5353 2.32763C12.722 2.4643 12.8776 2.63891 12.992 2.84C13.084 3.01 13.132 3.217 13.228 3.632L13.311 3.992C13.481 4.727 13.566 5.095 13.438 5.378C13.3507 5.56583 13.2089 5.723 13.031 5.829C12.75 6 12.332 6 11.498 6H10.502C9.66798 6 9.24998 6 8.96898 5.83C8.79091 5.72374 8.64906 5.5662 8.56199 5.378C8.43399 5.095 8.51898 4.728 8.68898 3.992L8.77199 3.632Z" stroke="#CC5500" stroke-width="1.5"/>
</svg>
