<svg width="18" height="18" viewBox="0 0 18 18" fill="none" xmlns="http://www.w3.org/2000/svg">
<path d="M2.39475 2.79452C2.42562 2.44002 2.58869 2.11011 2.85157 1.87029C3.11446 1.63047 3.45792 1.4983 3.81375 1.50002C4.15125 1.50002 4.46325 1.61702 4.7085 1.81277C4.97102 1.61006 5.29332 1.50007 5.625 1.50002C5.97 1.50002 6.288 1.61627 6.5415 1.81277C6.79533 1.60947 7.11105 1.49912 7.43625 1.50002C8.16825 1.50002 8.7915 2.05277 8.85525 2.79452C8.91825 3.52577 9 4.65677 9 5.62502C9.00007 6.2066 8.84985 6.77833 8.56392 7.28477C8.27798 7.79121 7.86602 8.21516 7.368 8.51552C7.2015 8.61602 7.158 8.74052 7.1625 8.80502C7.25775 10.2555 7.5 14.019 7.5 14.6228C7.5 15.12 7.30246 15.597 6.95083 15.9486C6.59919 16.3002 6.12228 16.4978 5.625 16.4978C5.12772 16.4978 4.65081 16.3002 4.29917 15.9486C3.94754 15.597 3.75 15.12 3.75 14.6228C3.75 14.019 3.99225 10.2555 4.0875 8.80502C4.09125 8.73977 4.0485 8.61602 3.882 8.51552C3.38398 8.21516 2.97202 7.79121 2.68608 7.28477C2.40015 6.77833 2.24993 6.2066 2.25 5.62502C2.25 4.65752 2.33175 3.52577 2.39475 2.79452ZM7.125 5.43752C7.125 5.5867 7.06574 5.72977 6.96025 5.83526C6.85476 5.94075 6.71168 6.00002 6.5625 6.00002C6.41332 6.00002 6.27024 5.94075 6.16475 5.83526C6.05926 5.72977 6 5.5867 6 5.43752V3.00002C6 2.90056 5.96049 2.80518 5.89016 2.73485C5.81984 2.66453 5.72446 2.62502 5.625 2.62502C5.52554 2.62502 5.43016 2.66453 5.35984 2.73485C5.28951 2.80518 5.25 2.90056 5.25 3.00002V5.43752C5.25 5.5867 5.19074 5.72977 5.08525 5.83526C4.97976 5.94075 4.83668 6.00002 4.6875 6.00002C4.53832 6.00002 4.39524 5.94075 4.28975 5.83526C4.18426 5.72977 4.125 5.5867 4.125 5.43752V2.93627C4.125 2.85372 4.09221 2.77455 4.03384 2.71618C3.97547 2.65781 3.8963 2.62502 3.81375 2.62502C3.73963 2.62373 3.66775 2.65041 3.61242 2.69976C3.5571 2.7491 3.52241 2.81748 3.51525 2.89127C3.453 3.61502 3.375 4.70627 3.375 5.62502C3.375 6.44252 3.81 7.15802 4.464 7.55252C4.87275 7.80002 5.24925 8.27252 5.21025 8.87852C5.11275 10.3635 4.875 14.067 4.875 14.6235C4.875 14.8224 4.95402 15.0132 5.09467 15.1538C5.23532 15.2945 5.42609 15.3735 5.625 15.3735C5.82391 15.3735 6.01468 15.2945 6.15533 15.1538C6.29598 15.0132 6.375 14.8224 6.375 14.6235C6.375 14.067 6.13725 10.3635 6.03975 8.87852C6.00075 8.27252 6.37725 7.80002 6.786 7.55252C7.11827 7.35236 7.39316 7.0697 7.58397 6.73197C7.77478 6.39424 7.87503 6.01292 7.875 5.62502C7.875 4.70702 7.797 3.61502 7.73475 2.89127C7.72759 2.81748 7.6929 2.7491 7.63758 2.69976C7.58225 2.65041 7.51037 2.62373 7.43625 2.62502C7.3537 2.62502 7.27453 2.65781 7.21616 2.71618C7.15779 2.77455 7.125 2.85372 7.125 2.93627V5.43752ZM9.75 5.81252C9.75 4.66877 10.2044 3.57187 11.0131 2.76312C11.8219 1.95437 12.9188 1.50002 14.0625 1.50002C14.2117 1.50002 14.3548 1.55928 14.4602 1.66477C14.5657 1.77026 14.625 1.91333 14.625 2.06252V8.43752C14.625 8.67602 14.7045 9.85877 14.7938 11.169L14.7975 11.2313C14.895 12.6623 15 14.2185 15 14.6228C15 15.12 14.8025 15.597 14.4508 15.9486C14.0992 16.3002 13.6223 16.4978 13.125 16.4978C12.6277 16.4978 12.1508 16.3002 11.7992 15.9486C11.4475 15.597 11.25 15.12 11.25 14.6228C11.25 14.2373 11.346 12.6645 11.439 11.2223C11.4855 10.494 11.5327 9.78827 11.568 9.26477L11.5852 9.00002H11.0625C10.8901 9.00002 10.7195 8.96607 10.5602 8.90011C10.401 8.83415 10.2563 8.73747 10.1344 8.61559C10.0125 8.49372 9.91587 8.34903 9.84991 8.18979C9.78395 8.03055 9.75 7.85988 9.75 7.68752V5.81252ZM12.7485 8.47652L12.7327 8.71202C12.6736 9.57289 12.6164 10.4339 12.561 11.295C12.4665 12.765 12.375 14.2845 12.375 14.6228C12.375 14.8217 12.454 15.0124 12.5947 15.1531C12.7353 15.2937 12.9261 15.3728 13.125 15.3728C13.3239 15.3728 13.5147 15.2937 13.6553 15.1531C13.796 15.0124 13.875 14.8217 13.875 14.6228C13.875 14.2628 13.7715 12.7283 13.671 11.2448L13.6658 11.1668C13.581 9.92252 13.5 8.72027 13.5 8.43752V2.67452C12.7638 2.8065 12.0975 3.19315 11.6176 3.76681C11.1378 4.34047 10.8749 5.06461 10.875 5.81252V7.68752C10.875 7.79102 10.959 7.87502 11.0625 7.87502H12.1875C12.2646 7.87504 12.341 7.89092 12.4117 7.92169C12.4824 7.95246 12.5461 7.99745 12.5987 8.05386C12.6513 8.11027 12.6918 8.17691 12.7175 8.24962C12.7433 8.32233 12.7538 8.39956 12.7485 8.47652Z" fill="#CC5500"/>
</svg>
