<svg width="13" height="13" viewBox="0 0 13 13" fill="none" xmlns="http://www.w3.org/2000/svg">
<path d="M3.46632 2.57856C4.27357 1.78745 5.36042 1.34689 6.49068 1.35259C7.62093 1.3583 8.70327 1.80983 9.5025 2.60905C10.3017 3.40827 10.7532 4.49061 10.759 5.62087C10.7647 6.75113 10.3241 7.83798 9.53298 8.64523L7.26557 10.9126C7.06241 11.1157 6.78691 11.2298 6.49965 11.2298C6.21239 11.2298 5.93689 11.1157 5.73373 10.9126L3.46632 8.64523C2.66188 7.84071 2.20996 6.7496 2.20996 5.6119C2.20996 4.47419 2.66188 3.38308 3.46632 2.57856Z" stroke="#0F172A" stroke-width="1.5" stroke-linejoin="round"/>
<path d="M6.5 7.2373C7.39746 7.2373 8.125 6.50977 8.125 5.6123C8.125 4.71484 7.39746 3.9873 6.5 3.9873C5.60254 3.9873 4.875 4.71484 4.875 5.6123C4.875 6.50977 5.60254 7.2373 6.5 7.2373Z" stroke="#0F172A" stroke-width="1.5" stroke-linecap="round" stroke-linejoin="round"/>
</svg>
