<svg width="20" height="20" viewBox="0 0 20 20" fill="none" xmlns="http://www.w3.org/2000/svg">
<path d="M16.6666 4.16634V7.49967C16.6666 7.73579 16.5866 7.93384 16.4266 8.09384C16.2666 8.25384 16.0688 8.33356 15.8333 8.33301C15.5977 8.33245 15.3999 8.25245 15.2399 8.09301C15.0799 7.93356 14.9999 7.73579 14.9999 7.49967V6.18717L11.6874 9.47884C11.9513 9.86773 12.1527 10.2811 12.2916 10.7188C12.4305 11.1566 12.4999 11.6113 12.4999 12.083C12.4999 13.3608 12.0555 14.4441 11.1666 15.333C10.2777 16.2219 9.19436 16.6663 7.91659 16.6663C6.63881 16.6663 5.55547 16.2219 4.66659 15.333C3.7777 14.4441 3.33325 13.3608 3.33325 12.083C3.33325 10.8052 3.7777 9.7219 4.66659 8.83301C5.55547 7.94412 6.63881 7.49967 7.91659 7.49967C8.37492 7.49967 8.82631 7.56551 9.27075 7.69717C9.7152 7.82884 10.1249 8.03384 10.4999 8.31217L13.8124 4.99967H12.4999C12.2638 4.99967 12.066 4.91967 11.9066 4.75967C11.7471 4.59967 11.6671 4.4019 11.6666 4.16634C11.666 3.93079 11.746 3.73301 11.9066 3.57301C12.0671 3.41301 12.2649 3.33301 12.4999 3.33301H15.8333C16.0694 3.33301 16.2674 3.41301 16.4274 3.57301C16.5874 3.73301 16.6671 3.93079 16.6666 4.16634ZM5.85409 10.0205C5.28464 10.59 4.99992 11.2775 4.99992 12.083C4.99992 12.8886 5.28464 13.5761 5.85409 14.1455C6.42353 14.715 7.11103 14.9997 7.91659 14.9997C8.72214 14.9997 9.40964 14.715 9.97909 14.1455C10.5485 13.5761 10.8333 12.8886 10.8333 12.083C10.8333 11.2775 10.5485 10.59 9.97909 10.0205C9.40964 9.45106 8.72214 9.16634 7.91659 9.16634C7.11103 9.16634 6.42353 9.45106 5.85409 10.0205Z" fill="#475569"/>
</svg>
