<svg width="20" height="20" viewBox="0 0 20 20" fill="none" xmlns="http://www.w3.org/2000/svg">
<path d="M14.75 7.75H16.25C16.913 7.75 17.5489 8.01339 18.0178 8.48223C18.4866 8.95107 18.75 9.58696 18.75 10.25C18.75 10.913 18.4866 11.5489 18.0178 12.0178C17.5489 12.4866 16.913 12.75 16.25 12.75H14.75M14.75 7.75C14.75 7.22 14.39 6.75 13.827 6.75H1.673C1.55179 6.75 1.43177 6.77387 1.31978 6.82026C1.2078 6.86664 1.10605 6.93463 1.02034 7.02034C0.934632 7.10605 0.866644 7.2078 0.820259 7.31978C0.773874 7.43177 0.75 7.55179 0.75 7.673V14.75C0.75 15.8109 1.17143 16.8283 1.92157 17.5784C2.67172 18.3286 3.68913 18.75 4.75 18.75H10.75C11.8109 18.75 12.8283 18.3286 13.5784 17.5784C14.3286 16.8283 14.75 15.8109 14.75 14.75V12.75M14.75 7.75V12.75M12.75 0.75L10.75 3.75M9.75 0.75L7.75 3.75M6.75 0.75L4.75 3.75" stroke="#CC5500" stroke-width="1.5" stroke-linecap="round" stroke-linejoin="round"/>
</svg>
