<svg width="18" height="18" viewBox="0 0 18 18" fill="none" xmlns="http://www.w3.org/2000/svg">
<path d="M6.05 15.95L2.05 11.95C2 12.5833 1.98767 13.2417 2.013 13.925C2.03834 14.6083 2.10067 15.2167 2.2 15.75C2.58334 15.8667 3.16267 15.9417 3.938 15.975C4.71334 16.0083 5.41734 16 6.05 15.95ZM8.45 15.55C9.43334 15.3333 10.3167 15.025 11.1 14.625C11.8833 14.225 12.5667 13.7333 13.15 13.15C13.7167 12.5833 14.2 11.9127 14.6 11.138C15 10.3633 15.3167 9.484 15.55 8.5L9.5 2.45C8.55 2.68333 7.69167 3.00433 6.925 3.413C6.15834 3.82167 5.48334 4.31733 4.9 4.9C4.31667 5.48267 3.821 6.162 3.413 6.938C3.005 7.714 2.684 8.58467 2.45 9.55L8.45 15.55ZM6.9 12.5L5.5 11.1L11.1 5.5L12.5 6.9L6.9 12.5ZM15.95 6.1C16.0167 5.45 16.0377 4.775 16.013 4.075C15.9883 3.375 15.9173 2.76667 15.8 2.25C15.4167 2.11667 14.8377 2.03333 14.063 2C13.2883 1.96667 12.584 1.98333 11.95 2.05L15.95 6.1ZM4.75 18C3.8 18 2.93334 17.929 2.15 17.787C1.36667 17.645 0.883338 17.4827 0.700005 17.3C0.516671 17.1 0.354005 16.6 0.212005 15.8C0.0700046 15 -0.000661994 14.1167 4.6729e-06 13.15C4.6729e-06 11.1667 0.300005 9.32933 0.900005 7.638C1.5 5.94667 2.35 4.55067 3.45 3.45C4.55 2.34933 5.95834 1.49933 7.675 0.9C9.39167 0.300667 11.25 0.000666667 13.25 0C14.2167 0 15.0877 0.0710001 15.863 0.213C16.6383 0.355 17.1173 0.517333 17.3 0.7C17.4833 0.9 17.646 1.4 17.788 2.2C17.93 3 18.0007 3.9 18 4.9C18 6.85 17.7 8.671 17.1 10.363C16.5 12.055 15.65 13.4507 14.55 14.55C13.4667 15.6333 12.0667 16.4793 10.35 17.088C8.63334 17.6967 6.76667 18.0007 4.75 18Z" fill="#0F172A"/>
</svg>
