<svg width="18" height="18" viewBox="0 0 18 18" fill="none" xmlns="http://www.w3.org/2000/svg">
<path d="M13.25 0.5C14.1928 0.5 15.0327 0.569627 15.7725 0.705078C16.1479 0.77383 16.436 0.844708 16.6436 0.915039C16.7465 0.949943 16.8225 0.981906 16.876 1.00977C16.9085 1.02674 16.9276 1.04065 16.9375 1.04785C16.9606 1.07917 17.0165 1.17256 17.084 1.37988C17.1554 1.59935 17.227 1.89926 17.2959 2.28711C17.4317 3.05237 17.5006 3.92249 17.5 4.89941V4.90039C17.5 6.79822 17.2083 8.5625 16.6289 10.1963C16.05 11.8288 15.236 13.1572 14.1963 14.1963C13.1746 15.218 11.8422 16.0287 10.1826 16.6172C8.52521 17.2048 6.7156 17.5006 4.75 17.5C3.82439 17.5 2.98816 17.4307 2.23926 17.2949C1.85987 17.2261 1.56919 17.1554 1.35938 17.085C1.25511 17.0499 1.17818 17.0172 1.12402 16.9893C1.09203 16.9727 1.07271 16.9594 1.0625 16.9521C1.03938 16.9208 0.983464 16.8274 0.916016 16.6201C0.844627 16.4006 0.772951 16.1007 0.704102 15.7129C0.568101 14.9467 0.499352 14.093 0.5 13.1504C0.5 11.2181 0.792032 9.437 1.37109 7.80469C1.95001 6.17293 2.76388 4.84421 3.80371 3.80371C4.84223 2.76456 6.18233 1.95075 7.83984 1.37207C9.29132 0.865324 10.8526 0.577945 12.5264 0.513672L13.25 0.5ZM1.55176 11.9111C1.50016 12.5649 1.48769 13.2424 1.51367 13.9434C1.53969 14.6452 1.6032 15.2791 1.70801 15.8418L1.76367 16.1396L2.05469 16.2285C2.50017 16.364 3.13122 16.4408 3.91699 16.4746C4.70815 16.5086 5.43319 16.5001 6.08984 16.4482L7.16992 16.3633L1.63672 10.8301L1.55176 11.9111ZM9.38086 1.96484C8.3955 2.20686 7.49704 2.5412 6.68945 2.97168C5.88187 3.40218 5.16677 3.92677 4.54688 4.5459C3.92575 5.16631 3.40065 5.88741 2.9707 6.70508C2.54124 7.52189 2.20629 8.43254 1.96387 9.43262L1.89746 9.70508L2.09668 9.90332L8.09668 15.9033L8.29004 16.0977L8.55762 16.0381C9.57657 15.8136 10.5009 15.4922 11.3271 15.0703C12.154 14.6481 12.8812 14.1266 13.5039 13.5039C14.1101 12.8977 14.6224 12.1837 15.0439 11.3672C15.4653 10.5512 15.7949 9.63266 16.0361 8.61523L16.1006 8.34375L9.6543 1.89746L9.38086 1.96484ZM11.793 6.90039L6.90039 11.793L6.20703 11.0996L11.0996 6.20703L11.793 6.90039ZM14.085 1.5C13.2907 1.46583 12.5605 1.48301 11.8975 1.55273L10.8633 1.66113L11.5947 2.40137L15.5947 6.45117L16.3389 7.20605L16.4473 6.15137C16.5164 5.47708 16.5381 4.77881 16.5127 4.05762C16.4873 3.33574 16.4132 2.6948 16.2871 2.13965L16.2266 1.86914L15.9639 1.77734C15.51 1.61957 14.8721 1.53389 14.085 1.5Z" fill="white" stroke="#CC5500"/>
</svg>
