<svg width="24" height="24" viewBox="0 0 24 24" fill="none" xmlns="http://www.w3.org/2000/svg">
<g clip-path="url(#clip0_392_3409)">
<path d="M14.4002 19.3332C14.4002 19.1564 14.33 18.9868 14.205 18.8618C14.0799 18.7367 13.9104 18.6665 13.7336 18.6665H9.73356C9.55675 18.6665 9.38718 18.7367 9.26216 18.8618C9.13713 18.9868 9.06689 19.1564 9.06689 19.3332C9.06689 19.51 9.13713 19.6796 9.26216 19.8046C9.38718 19.9296 9.55675 19.9998 9.73356 19.9998H13.7336C13.9104 19.9998 14.0799 19.9296 14.205 19.8046C14.33 19.6796 14.4002 19.51 14.4002 19.3332Z" fill="#CC5500"/>
<path d="M15.0265 16H11.0265C10.8497 16 10.6801 16.0702 10.5551 16.1953C10.4301 16.3203 10.3599 16.4899 10.3599 16.6667C10.3599 16.8435 10.4301 17.013 10.5551 17.1381C10.6801 17.2631 10.8497 17.3333 11.0265 17.3333H15.0265C15.2033 17.3333 15.3729 17.2631 15.4979 17.1381C15.623 17.013 15.6932 16.8435 15.6932 16.6667C15.6932 16.4899 15.623 16.3203 15.4979 16.1953C15.3729 16.0702 15.2033 16 15.0265 16Z" fill="#CC5500"/>
<path d="M14.6667 21.3335H10.6667C10.4899 21.3335 10.3203 21.4037 10.1953 21.5288C10.0702 21.6538 10 21.8234 10 22.0002C10 22.177 10.0702 22.3465 10.1953 22.4716C10.3203 22.5966 10.4899 22.6668 10.6667 22.6668H14.6667C14.8435 22.6668 15.013 22.5966 15.1381 22.4716C15.2631 22.3465 15.3333 22.177 15.3333 22.0002C15.3333 21.8234 15.2631 21.6538 15.1381 21.5288C15.013 21.4037 14.8435 21.3335 14.6667 21.3335Z" fill="#CC5500"/>
<path d="M21.8001 21.3335H17.1335C16.9567 21.3335 16.7871 21.4037 16.6621 21.5288C16.537 21.6538 16.4668 21.8234 16.4668 22.0002C16.4668 22.177 16.537 22.3465 16.6621 22.4716C16.7871 22.5966 16.9567 22.6668 17.1335 22.6668H21.8001C21.9769 22.6668 22.1465 22.5966 22.2715 22.4716C22.3966 22.3465 22.4668 22.177 22.4668 22.0002C22.4668 21.8234 22.3966 21.6538 22.2715 21.5288C22.1465 21.4037 21.9769 21.3335 21.8001 21.3335Z" fill="#CC5500"/>
<path d="M22.4666 18.6665H17.8C17.6232 18.6665 17.4536 18.7367 17.3286 18.8618C17.2035 18.9868 17.1333 19.1564 17.1333 19.3332C17.1333 19.51 17.2035 19.6796 17.3286 19.8046C17.4536 19.9296 17.6232 19.9998 17.8 19.9998H22.4666C22.6434 19.9998 22.813 19.9296 22.938 19.8046C23.0631 19.6796 23.1333 19.51 23.1333 19.3332C23.1333 19.1564 23.0631 18.9868 22.938 18.8618C22.813 18.7367 22.6434 18.6665 22.4666 18.6665Z" fill="#CC5500"/>
<path d="M22.4934 17.3335C22.298 14.9861 21.6601 12.697 20.6134 10.5868C19.6107 8.67999 18.1659 7.04096 16.4 5.80683L18 2.28016C18.0516 2.17477 18.0745 2.05762 18.0663 1.94056C18.0581 1.8235 18.0191 1.71068 17.9534 1.6135C17.8927 1.52824 17.8128 1.45847 17.7201 1.40983C17.6275 1.36118 17.5247 1.33504 17.42 1.3335H6.53336C6.42129 1.33322 6.31096 1.3612 6.21256 1.41485C6.11416 1.46851 6.03088 1.5461 5.97041 1.64046C5.90994 1.73482 5.87424 1.8429 5.8666 1.95471C5.85895 2.06652 5.87962 2.17846 5.9267 2.28016L7.56003 5.82016C5.8065 7.05488 4.37152 8.68866 3.37336 10.5868C1.94003 13.2535 1.49336 16.5135 1.37336 18.7735C1.35371 19.1044 1.4028 19.4357 1.51754 19.7466C1.63228 20.0576 1.81018 20.3414 2.04003 20.5802C2.28182 20.8145 2.5679 20.9983 2.88154 21.1207C3.19518 21.2432 3.53009 21.302 3.8667 21.2935H8.00003V20.0002H3.81336C3.66249 19.9997 3.51326 19.9687 3.37464 19.9092C3.23602 19.8496 3.11087 19.7626 3.0067 19.6535C2.90237 19.5452 2.82179 19.4164 2.77013 19.2752C2.71847 19.134 2.69687 18.9835 2.7067 18.8335C2.80003 17.0935 3.1667 13.7802 4.5467 11.2002C5.51952 9.35157 6.95805 7.78894 8.72003 6.66683H9.3867C8.93515 7.29195 8.51894 7.94186 8.14003 8.6135C7.7549 9.32859 7.42721 10.0732 7.16003 10.8402L8.07336 11.4535C8.3432 10.6575 8.67534 9.88399 9.0667 9.14016C9.54705 8.27514 10.0931 7.44827 10.7 6.66683H11.3667C11.8136 7.73586 12.1292 8.85514 12.3067 10.0002C12.4516 10.8502 12.523 11.7112 12.52 12.5735L13.5734 11.8335C13.5443 11.163 13.473 10.495 13.36 9.8335C13.1804 8.75246 12.8946 7.69177 12.5067 6.66683H13.0267L13.6334 5.3335H8.8067L7.57336 2.66683H16.38L14.7134 6.3135C14.999 6.46667 15.273 6.64046 15.5334 6.8335C17.1673 7.95984 18.5071 9.46191 19.44 11.2135C20.375 13.1337 20.9554 15.207 21.1534 17.3335H22.4934Z" fill="#CC5500"/>
</g>
<defs>
<clipPath id="clip0_392_3409">
<rect width="24" height="24" fill="white"/>
</clipPath>
</defs>
</svg>
