<svg width="20" height="20" viewBox="0 0 20 20" fill="none" xmlns="http://www.w3.org/2000/svg">
<path d="M8.16446 2.5C7.61696 2.5 7.13634 2.78125 6.79696 3.14438C6.45759 3.50813 6.21321 3.9625 5.99634 4.45312C5.66446 5.20938 5.42759 6.05 5.21509 6.83625C4.53634 7.03375 3.96009 7.28 3.49634 7.57812C2.95446 7.9275 2.50009 8.41063 2.50009 9.0625C2.50009 9.62875 2.84696 10.0831 3.28134 10.41C3.65259 10.6888 4.10884 10.9206 4.64884 11.1131C4.68009 11.2569 4.72696 11.4037 4.78509 11.5431C4.25821 11.8406 3.42259 12.4169 2.61759 13.5156L2.24634 14.0431L2.77384 14.4138L4.82384 15.82L3.98509 17.5H16.0163L15.1763 15.82L17.2276 14.4138L17.7545 14.0431L17.3838 13.5156C16.5776 12.4169 15.7432 11.8406 15.2151 11.5431C15.2738 11.4042 15.3198 11.2603 15.3526 11.1131C15.892 10.9206 16.3482 10.6881 16.7195 10.41C17.1538 10.0831 17.5007 9.62875 17.5007 9.0625C17.5007 8.41063 17.0463 7.9275 16.5045 7.57812C16.0407 7.28 15.4645 7.03375 14.7857 6.83563C14.5513 6.02063 14.2926 5.16625 13.9657 4.41438C13.7532 3.92813 13.5188 3.48125 13.1845 3.125C12.8501 2.76875 12.3738 2.5 11.8363 2.5C11.4726 2.5 11.197 2.6 10.8988 2.67563C10.6013 2.75125 10.3007 2.8125 10.0007 2.8125C9.40071 2.8125 8.89696 2.5 8.16446 2.5ZM8.16446 3.75C8.29384 3.75 9.06259 4.0625 10.0001 4.0625C10.4688 4.0625 10.8863 3.9675 11.2113 3.88687C11.5357 3.80562 11.7826 3.75 11.8363 3.75C11.9801 3.75 12.0876 3.79625 12.2657 3.98438C12.4438 4.17188 12.6538 4.51187 12.832 4.92188C13.1713 5.69812 13.4301 6.75812 13.7113 7.73438C13.7113 7.73187 13.7451 7.705 13.6526 7.75375C13.4963 7.83938 13.1688 7.94938 12.7732 8.0075C11.9801 8.1275 10.8982 8.125 10.0001 8.125C9.10634 8.125 8.02259 8.1125 7.22634 7.98813C6.82884 7.9275 6.50634 7.81938 6.34759 7.73438C6.29884 7.7075 6.28196 7.7175 6.26946 7.715V7.69562C6.27196 7.69062 6.26696 7.68063 6.26946 7.67563L6.28884 7.65625C6.33581 7.57228 6.36276 7.4786 6.36759 7.3825V7.36375C6.59196 6.53312 6.84321 5.65437 7.14884 4.96062C7.33134 4.54375 7.52946 4.20438 7.71509 4.00438C7.90071 3.80438 8.02759 3.75 8.16446 3.75ZM5.11696 8.18375C5.25884 8.47687 5.50821 8.71125 5.76196 8.8475C6.14321 9.05 6.57946 9.14563 7.05071 9.21875C7.99321 9.365 9.09696 9.375 10.0001 9.375C10.8988 9.375 12.0045 9.38 12.9495 9.23813C13.4232 9.1675 13.8551 9.075 14.2382 8.86688C14.4945 8.72813 14.7438 8.48125 14.8832 8.18375C15.2688 8.32062 15.5932 8.46688 15.8207 8.61313C16.1845 8.8475 16.2501 9.02125 16.2501 9.0625C16.2501 9.09938 16.2188 9.21875 15.957 9.41437C15.6957 9.60937 15.247 9.83625 14.6682 10.0194C13.5107 10.3881 11.8457 10.625 10.0001 10.625C8.15446 10.625 6.48946 10.3881 5.33196 10.0194C4.75321 9.83625 4.30446 9.60937 4.04321 9.41437C3.78134 9.21875 3.75009 9.09938 3.75009 9.0625C3.75009 9.02125 3.79884 8.865 4.16009 8.6325C4.38759 8.48625 4.72134 8.3275 5.11696 8.18375ZM6.73821 11.6019C6.94321 11.6356 7.14634 11.6919 7.36321 11.7188C7.44446 12.2681 7.87134 12.7512 8.55446 12.7931C9.08196 12.8244 9.67509 12.5756 9.72696 11.875H10.2738C10.3251 12.5756 10.9176 12.825 11.4457 12.7931C12.1288 12.7512 12.5563 12.2681 12.637 11.7188C12.8538 11.6919 13.057 11.6356 13.262 11.6013L13.2032 11.9919C13.0101 13.02 12.5513 13.9719 11.9726 14.6294C11.3938 15.285 10.7157 15.6344 10.0001 15.625C9.26509 15.615 8.60134 15.2612 8.02759 14.6094C7.45384 13.9575 7.00259 13.025 6.79696 11.9919L6.73821 11.6019ZM14.3751 12.5C14.607 12.6369 15.2176 13.0375 15.9182 13.8087L14.0232 15.1169L13.5745 15.4106L13.8088 15.8981L13.9845 16.25H12.012C12.3441 16.0223 12.6459 15.7532 12.9101 15.4494C13.5988 14.6681 14.0601 13.645 14.3163 12.5388C14.3382 12.5269 14.3557 12.5125 14.3751 12.5ZM5.60571 12.5194C5.63009 12.5344 5.65946 12.5444 5.68384 12.5587C5.95259 13.65 6.41134 14.6606 7.09009 15.4294C7.37071 15.7494 7.69759 16.0231 8.04696 16.25H6.01571L6.19134 15.8981L6.42571 15.4106L5.97634 15.1169L4.08259 13.8087C4.74384 13.0787 5.34696 12.6756 5.60571 12.5194Z" fill="white"/>
</svg>
