<svg width="12" height="15" viewBox="0 0 12 15" fill="none" xmlns="http://www.w3.org/2000/svg">
<path d="M6 10.5C6.2125 10.5 6.39062 10.4281 6.53438 10.2844C6.67813 10.1406 6.75 9.9625 6.75 9.75C6.75 9.5375 6.67813 9.35938 6.53438 9.21562C6.39062 9.07187 6.2125 9 6 9C5.7875 9 5.60938 9.07187 5.46562 9.21562C5.32187 9.35938 5.25 9.5375 5.25 9.75C5.25 9.9625 5.32187 10.1406 5.46562 10.2844C5.60938 10.4281 5.7875 10.5 6 10.5ZM5.25 7.5H6.75V3.75H5.25V7.5ZM6 15C4.2625 14.5625 2.82812 13.5656 1.69687 12.0094C0.565625 10.4531 0 8.725 0 6.825V2.25L6 0L12 2.25V6.825C12 8.725 11.4344 10.4531 10.3031 12.0094C9.17188 13.5656 7.7375 14.5625 6 15ZM6 13.425C7.3 13.0125 8.375 12.1875 9.225 10.95C10.075 9.7125 10.5 8.3375 10.5 6.825V3.28125L6 1.59375L1.5 3.28125V6.825C1.5 8.3375 1.925 9.7125 2.775 10.95C3.625 12.1875 4.7 13.0125 6 13.425Z" fill="#64748B"/>
</svg>
