<svg width="16" height="17" viewBox="0 0 16 17" fill="none" xmlns="http://www.w3.org/2000/svg">
<path d="M12.7917 16.6667C13.1389 15.8056 13.3819 14.9236 13.5208 14.0208C13.6597 13.1181 13.6944 12.2083 13.625 11.2917C13.0833 12.4444 12.2743 13.3507 11.1979 14.0104C10.1215 14.6701 8.94444 15 7.66667 15C6.5 15 5.44444 14.7257 4.5 14.1771C3.55556 13.6285 2.75 12.8958 2.08333 11.9792C1.41667 11.0625 0.902778 10.0104 0.541667 8.82292C0.180556 7.63542 0 6.40278 0 5.125C0 4.25 0.0590278 3.38542 0.177083 2.53125C0.295139 1.67708 0.5 0.833333 0.791667 0H2.54167C2.20833 0.861111 1.96875 1.74306 1.82292 2.64583C1.67708 3.54861 1.63889 4.45833 1.70833 5.375C2.25 4.22222 3.05903 3.31597 4.13542 2.65625C5.21181 1.99653 6.38889 1.66667 7.66667 1.66667C8.83333 1.66667 9.88889 1.94097 10.8333 2.48958C11.7778 3.03819 12.5833 3.77083 13.25 4.6875C13.9167 5.60417 14.4306 6.65625 14.7917 7.84375C15.1528 9.03125 15.3333 10.2639 15.3333 11.5417C15.3333 12.4167 15.2743 13.2812 15.1562 14.1354C15.0382 14.9896 14.8333 15.8333 14.5417 16.6667H12.7917ZM7.66667 13.3333C9.05556 13.3333 10.2361 12.8472 11.2083 11.875C12.1806 10.9028 12.6667 9.72222 12.6667 8.33333C12.6667 6.94444 12.1806 5.76389 11.2083 4.79167C10.2361 3.81944 9.05556 3.33333 7.66667 3.33333C6.27778 3.33333 5.09722 3.81944 4.125 4.79167C3.15278 5.76389 2.66667 6.94444 2.66667 8.33333C2.66667 9.72222 3.15278 10.9028 4.125 11.875C5.09722 12.8472 6.27778 13.3333 7.66667 13.3333ZM7.66667 11.6667C8.58333 11.6667 9.36806 11.3403 10.0208 10.6875C10.6736 10.0347 11 9.25 11 8.33333C11 7.41667 10.6736 6.63194 10.0208 5.97917C9.36806 5.32639 8.58333 5 7.66667 5C6.75 5 5.96528 5.32639 5.3125 5.97917C4.65972 6.63194 4.33333 7.41667 4.33333 8.33333C4.33333 9.25 4.65972 10.0347 5.3125 10.6875C5.96528 11.3403 6.75 11.6667 7.66667 11.6667ZM7.66667 10C7.20833 10 6.81597 9.83681 6.48958 9.51042C6.16319 9.18403 6 8.79167 6 8.33333C6 7.875 6.16319 7.48264 6.48958 7.15625C6.81597 6.82986 7.20833 6.66667 7.66667 6.66667C8.125 6.66667 8.51736 6.82986 8.84375 7.15625C9.17014 7.48264 9.33333 7.875 9.33333 8.33333C9.33333 8.79167 9.17014 9.18403 8.84375 9.51042C8.51736 9.83681 8.125 10 7.66667 10Z" fill="#CC5500"/>
</svg>
