<svg width="20" height="20" viewBox="0 0 20 20" fill="none" xmlns="http://www.w3.org/2000/svg">
<g clip-path="url(#clip0_275_1372)">
<path d="M10.0001 8.33317C11.841 8.33317 13.3334 6.84079 13.3334 4.99984C13.3334 3.15889 11.841 1.6665 10.0001 1.6665C8.15913 1.6665 6.66675 3.15889 6.66675 4.99984C6.66675 6.84079 8.15913 8.33317 10.0001 8.33317Z" stroke="#CC5500" stroke-width="1.5"/>
<path d="M15.0001 16.6667C16.841 16.6667 18.3334 15.1743 18.3334 13.3333C18.3334 11.4924 16.841 10 15.0001 10C13.1591 10 11.6667 11.4924 11.6667 13.3333C11.6667 15.1743 13.1591 16.6667 15.0001 16.6667Z" stroke="#CC5500" stroke-width="1.5"/>
<path d="M13.8892 13.3331L14.5833 14.1665L16.1108 12.5923" stroke="#CC5500" stroke-width="1.5" stroke-linecap="round" stroke-linejoin="round"/>
<path d="M12.5 11.1055C11.6794 10.9223 10.8409 10.8309 10 10.833C6.31837 10.833 3.33337 12.5122 3.33337 14.583C3.33337 16.6539 3.33337 18.333 10 18.333C14.7392 18.333 16.1092 17.4847 16.5059 16.2497" stroke="#CC5500" stroke-width="1.5"/>
</g>
<defs>
<clipPath id="clip0_275_1372">
<rect width="20" height="20" fill="white"/>
</clipPath>
</defs>
</svg>
