<svg width="30" height="24" viewBox="0 0 30 24" fill="none" xmlns="http://www.w3.org/2000/svg">
<g clip-path="url(#clip0_1067_3583)">
<path d="M28 17.5V2.5C28 2.36458 27.9505 2.2474 27.8516 2.14844C27.7526 2.04948 27.6354 2 27.5 2H2.5C2.36458 2 2.2474 2.04948 2.14844 2.14844C2.04948 2.2474 2 2.36458 2 2.5V17.5C2 17.6354 2.04948 17.7526 2.14844 17.8516C2.2474 17.9505 2.36458 18 2.5 18H27.5C27.6354 18 27.7526 17.9505 27.8516 17.8516C27.9505 17.7526 28 17.6354 28 17.5ZM30 2.5V17.5C30 18.1875 29.7552 18.776 29.2656 19.2656C28.776 19.7552 28.1875 20 27.5 20H16V22H21.5C21.6458 22 21.7656 22.0469 21.8594 22.1406C21.9531 22.2344 22 22.3542 22 22.5V23.5C22 23.6458 21.9531 23.7656 21.8594 23.8594C21.7656 23.9531 21.6458 24 21.5 24H8.5C8.35417 24 8.23438 23.9531 8.14062 23.8594C8.04688 23.7656 8 23.6458 8 23.5V22.5C8 22.3542 8.04688 22.2344 8.14062 22.1406C8.23438 22.0469 8.35417 22 8.5 22H14V20H2.5C1.8125 20 1.22396 19.7552 0.734375 19.2656C0.244792 18.776 0 18.1875 0 17.5V2.5C0 1.8125 0.244792 1.22396 0.734375 0.734375C1.22396 0.244792 1.8125 0 2.5 0H27.5C28.1875 0 28.776 0.244792 29.2656 0.734375C29.7552 1.22396 30 1.8125 30 2.5Z" fill="#0F172A"/>
</g>
<defs>
<clipPath id="clip0_1067_3583">
<rect width="30" height="24" fill="white"/>
</clipPath>
</defs>
</svg>
