<svg width="390" height="874" viewBox="0 0 390 874" fill="none" xmlns="http://www.w3.org/2000/svg">
<path d="M-33 461H19.5V414.5H-33V410H19.5H32V461V465H-33V461Z" fill="#CC5500" fill-opacity="0.15"/>
<path d="M121.5 874.5L121.5 658.736C121.5 657.266 121.842 655.815 122.5 654.5L124.5 655.5L125.5 645L117 652L119 653C118.01 655.309 117.5 657.795 117.5 660.308L117.5 874.5H121.5Z" fill="#CC5500" fill-opacity="0.15"/>
<path d="M273.882 648.382V874.579C273.882 875.11 273.979 875.636 274.168 876.132C274.387 876.705 274.724 877.224 275.157 877.657L275.356 877.856C275.783 878.283 276.275 878.638 276.815 878.908C277.594 879.297 278.454 879.5 279.325 879.5H279.5C280.152 879.5 280.79 879.307 281.332 878.946L281.63 878.747C281.876 878.583 282.105 878.395 282.314 878.186L282.913 877.587C282.971 877.53 283.019 877.463 283.055 877.39C283.279 876.942 283.016 876.403 282.525 876.305L281.693 876.139C281.26 876.052 280.812 876.188 280.5 876.5L280.398 876.602C280.143 876.857 279.797 877 279.437 877C278.873 877 278.367 876.652 278.166 876.125L278.012 875.724C277.926 875.498 277.882 875.258 277.882 875.016V648.382L279 647L278 645H276.5L273.5 644L271.5 643.5L270 643L269 642.5L268 642L269 643L270 644L271 645L273.882 648.382Z" fill="#CC5500" fill-opacity="0.15"/>
<path d="M199 676.5V831.928C199 833.412 200.073 834.679 201.537 834.923C201.844 834.974 202.157 834.978 202.465 834.934L203.004 834.857C204.611 834.627 206.075 833.81 207.114 832.563L207.42 832.196C207.805 831.733 208.136 831.228 208.405 830.69L209.5 828.5L210.5 826L212 822L213 819L215.5 821C215.168 822.662 214.663 824.285 213.996 825.843L213.5 827L212 830.5L211.522 831.696C211.175 832.562 210.726 833.384 210.184 834.143L209.679 834.849C208.905 835.933 207.877 836.811 206.686 837.407C205.9 837.8 205.057 838.063 204.188 838.187L202.197 838.472C202.066 838.491 201.933 838.5 201.801 838.5C200.254 838.5 199 839.754 199 841.301L199 980H195L195 676.5H199Z" fill="#CC5500" fill-opacity="0.15"/>
<path d="M73.5 589V636.5L16 655.5V659.5L16 682L16 979H22L22 682L22 659.5L77.5 642V636.5V589H73.5Z" fill="#CC5500" fill-opacity="0.15"/>
<path d="M317 589V636.5L374.5 655.5V659.5V682V979H368.5V682V659.5L313 642V636.5V589H317Z" fill="#CC5500" fill-opacity="0.15"/>
<path d="M117.5 -0.5L117.5 215.264C117.5 216.734 117.842 218.185 118.5 219.5L120.5 218.5L121.5 229L113 222L115 221C114.01 218.691 113.5 216.205 113.5 213.692L113.5 -0.5L117.5 -0.5Z" fill="#CC5500" fill-opacity="0.15"/>
<path d="M269.882 225.618V-0.578857C269.882 -1.10985 269.979 -1.63638 270.168 -2.13241C270.387 -2.70453 270.724 -3.22409 271.157 -3.65715L271.356 -3.85612C271.783 -4.28275 272.275 -4.6378 272.815 -4.90762C273.594 -5.29735 274.454 -5.50024 275.325 -5.50024H275.5C276.152 -5.50024 276.79 -5.30724 277.332 -4.94554L277.63 -4.74669C277.876 -4.58279 278.105 -4.39502 278.314 -4.18609L278.913 -3.58743C278.971 -3.52968 279.019 -3.46301 279.055 -3.38997C279.279 -2.94188 279.016 -2.40341 278.525 -2.30516L277.693 -2.13892C277.26 -2.05228 276.812 -2.18787 276.5 -2.50024L276.398 -2.60182C276.143 -2.85693 275.797 -3.00024 275.437 -3.00024C274.873 -3.00024 274.367 -2.65223 274.166 -2.12537L274.012 -1.72408C273.926 -1.49799 273.882 -1.258 273.882 -1.01597V225.618L275 227L274 229H272.5L269.5 230L267.5 230.5L266 231L265 231.5L264 232L265 231L266 230L267 229L269.882 225.618Z" fill="#CC5500" fill-opacity="0.15"/>
<path d="M195 197.5V42.0716C195 40.5877 196.073 39.3212 197.537 39.0772C197.844 39.026 198.157 39.0224 198.465 39.0664L199.004 39.1435C200.611 39.373 202.075 40.19 203.114 41.4367L203.42 41.8044C203.805 42.2666 204.136 42.7718 204.405 43.3099L205.5 45.5L206.5 48L208 52L209 55L211.5 53C211.168 51.3378 210.663 49.7147 209.996 48.1566L209.5 47L208 43.5L207.522 42.3042C207.175 41.4379 206.726 40.6163 206.184 39.857L205.679 39.1508C204.905 38.0667 203.877 37.1885 202.686 36.5928C201.9 36.2002 201.057 35.9367 200.188 35.8126L198.197 35.5282C198.066 35.5094 197.933 35.5 197.801 35.5C196.254 35.5 195 34.246 195 32.6991L195 -106H191L191 197.5H195Z" fill="#CC5500" fill-opacity="0.15"/>
<path d="M69.5 285V237.5L12 218.5V214.5L12 192L12 -105H18L18 192L18 214.5L73.5 232V237.5V285H69.5Z" fill="#CC5500" fill-opacity="0.15"/>
<path d="M313 285V237.5L370.5 218.5V214.5V192V-105H364.5V192V214.5L309 232V237.5V285H313Z" fill="#CC5500" fill-opacity="0.15"/>
<path d="M423 461H370.5V414.5H423V410H370.5H358V461V465H423V461Z" fill="#CC5500" fill-opacity="0.15"/>
</svg>
