<svg width="120" height="111" viewBox="0 0 120 111" fill="none" xmlns="http://www.w3.org/2000/svg">
<path d="M38.3164 5.64648C44.1376 2.42955 51.1087 2.04556 57.248 4.60352C62.5456 6.81081 68.4809 6.93948 73.8691 4.96387L74.2734 4.81543C78.3632 3.31593 82.7963 3.01444 87.0518 3.94531L88.6064 4.28516C93.614 5.38055 98.2308 7.81266 101.967 11.3223L105.223 14.3799C110.023 18.8892 113.513 24.6138 115.322 30.9463L116.932 36.5791C118.553 42.2526 117.859 48.3378 115.003 53.501C110.13 62.3091 99.9607 66.7616 90.1836 64.3672L87.3447 63.6719C84.1613 62.8923 80.8627 62.696 77.6094 63.0928L67.96 64.2695C64.0223 64.7497 60.0338 64.6142 56.1377 63.8682L46.6914 62.0596C41.4095 61.0481 35.9494 62.4003 31.75 65.7598C26.3494 70.0803 23.8312 77.0661 25.2324 83.8389L26.0107 87.6016L26.0146 87.624L26.0215 87.6455C28.2462 94.9553 34.1159 100.58 41.5137 102.492L67.1113 109.106L34.3525 105.164C25.8202 104.137 18.2619 99.1713 13.9316 91.748L13.916 91.7207L13.8965 91.6953L9.25488 85.6611C5.77108 81.1321 3.33141 75.8886 2.11035 70.3066L1.39551 67.04C0.800201 64.3185 0.50001 61.5408 0.5 58.7549V46.873L0.507812 46.0918C0.586472 42.1889 1.25388 38.3185 2.48926 34.6123L4.99707 27.0898C6.2666 23.2813 8.48938 19.8602 11.4541 17.1533L13.6797 15.1211C16.5835 12.4698 20.3745 11 24.3066 11C27.1418 10.9999 29.9306 10.2805 32.4121 8.90918L38.3164 5.64648Z" fill="#F4E7DD" stroke="#ECCAB1"/>
<path d="M51.8419 16.1C52.8019 16.1 53.5285 16.3067 54.0219 16.72C54.5285 17.1333 54.8752 17.6867 55.0619 18.38C55.2485 19.06 55.3419 19.82 55.3419 20.66V25.78C55.3419 26.1267 55.2285 26.42 55.0019 26.66C54.7752 26.8867 54.4885 27 54.1419 27C53.7952 27 53.5085 26.8867 53.2819 26.66C53.0552 26.42 52.9419 26.1267 52.9419 25.78V20.66C52.9419 20.22 52.8885 19.8267 52.7819 19.48C52.6752 19.12 52.4819 18.8333 52.2019 18.62C51.9219 18.4067 51.5219 18.3 51.0019 18.3C50.4952 18.3 50.0619 18.4067 49.7019 18.62C49.3419 18.8333 49.0685 19.12 48.8819 19.48C48.7085 19.8267 48.6219 20.22 48.6219 20.66V25.78C48.6219 26.1267 48.5085 26.42 48.2819 26.66C48.0552 26.8867 47.7685 27 47.4219 27C47.0752 27 46.7885 26.8867 46.5619 26.66C46.3352 26.42 46.2219 26.1267 46.2219 25.78V13.42C46.2219 13.0733 46.3352 12.7867 46.5619 12.56C46.7885 12.32 47.0752 12.2 47.4219 12.2C47.7685 12.2 48.0552 12.32 48.2819 12.56C48.5085 12.7867 48.6219 13.0733 48.6219 13.42V18.38L48.3219 18.32C48.4419 18.0933 48.6085 17.8533 48.8219 17.6C49.0352 17.3333 49.2952 17.0867 49.6019 16.86C49.9085 16.6333 50.2485 16.4533 50.6219 16.32C50.9952 16.1733 51.4019 16.1 51.8419 16.1ZM62.9806 27.2C61.8473 27.2 60.8606 26.9667 60.0206 26.5C59.194 26.02 58.554 25.3733 58.1006 24.56C57.6606 23.7467 57.4406 22.8267 57.4406 21.8C57.4406 20.6 57.6806 19.58 58.1606 18.74C58.654 17.8867 59.294 17.2333 60.0806 16.78C60.8673 16.3267 61.7006 16.1 62.5806 16.1C63.2606 16.1 63.9006 16.24 64.5006 16.52C65.114 16.8 65.654 17.1867 66.1206 17.68C66.5873 18.16 66.954 18.72 67.2206 19.36C67.5006 20 67.6406 20.68 67.6406 21.4C67.6273 21.72 67.5006 21.98 67.2606 22.18C67.0206 22.38 66.7406 22.48 66.4206 22.48H58.7806L58.1806 20.48H65.5206L65.0806 20.88V20.34C65.054 19.9533 64.914 19.6067 64.6606 19.3C64.4206 18.9933 64.114 18.7533 63.7406 18.58C63.3806 18.3933 62.994 18.3 62.5806 18.3C62.1806 18.3 61.8073 18.3533 61.4606 18.46C61.114 18.5667 60.814 18.7467 60.5606 19C60.3073 19.2533 60.1073 19.5933 59.9606 20.02C59.814 20.4467 59.7406 20.9867 59.7406 21.64C59.7406 22.36 59.8873 22.9733 60.1806 23.48C60.4873 23.9733 60.874 24.3533 61.3406 24.62C61.8206 24.8733 62.3273 25 62.8606 25C63.354 25 63.7473 24.96 64.0406 24.88C64.334 24.8 64.5673 24.7067 64.7406 24.6C64.9273 24.48 65.094 24.38 65.2406 24.3C65.4806 24.18 65.7073 24.12 65.9206 24.12C66.214 24.12 66.454 24.22 66.6406 24.42C66.8406 24.62 66.9406 24.8533 66.9406 25.12C66.9406 25.48 66.754 25.8067 66.3806 26.1C66.034 26.3933 65.5473 26.6533 64.9206 26.88C64.294 27.0933 63.6473 27.2 62.9806 27.2ZM77.5798 16.3C77.9265 16.3 78.2132 16.42 78.4398 16.66C78.6665 16.8867 78.7798 17.1733 78.7798 17.52V26.02C78.7798 27.2467 78.5465 28.22 78.0798 28.94C77.6265 29.6733 77.0132 30.2 76.2398 30.52C75.4665 30.84 74.5998 31 73.6398 31C73.2132 31 72.7598 30.9667 72.2798 30.9C71.7998 30.8333 71.4065 30.7333 71.0998 30.6C70.6998 30.4267 70.4198 30.2067 70.2598 29.94C70.1132 29.6867 70.0865 29.4133 70.1798 29.12C70.2998 28.7333 70.4932 28.4667 70.7598 28.32C71.0265 28.1867 71.3065 28.1733 71.5998 28.28C71.8132 28.3467 72.0932 28.4467 72.4398 28.58C72.7865 28.7267 73.1865 28.8 73.6398 28.8C74.2532 28.8 74.7598 28.7133 75.1598 28.54C75.5732 28.38 75.8798 28.1 76.0798 27.7C76.2932 27.3133 76.3998 26.78 76.3998 26.1V24.76L76.8198 25.24C76.5932 25.68 76.3065 26.0467 75.9598 26.34C75.6265 26.62 75.2265 26.8333 74.7598 26.98C74.2932 27.1267 73.7598 27.2 73.1598 27.2C72.4532 27.2 71.8332 27.04 71.2998 26.72C70.7798 26.3867 70.3732 25.9333 70.0798 25.36C69.7865 24.7733 69.6398 24.1067 69.6398 23.36V17.52C69.6398 17.1733 69.7532 16.8867 69.9798 16.66C70.2065 16.42 70.4932 16.3 70.8398 16.3C71.1865 16.3 71.4732 16.42 71.6998 16.66C71.9265 16.8867 72.0398 17.1733 72.0398 17.52V22.64C72.0398 23.5067 72.2265 24.12 72.5998 24.48C72.9865 24.8267 73.5198 25 74.1998 25C74.6665 25 75.0598 24.9133 75.3798 24.74C75.6998 24.5533 75.9465 24.2867 76.1198 23.94C76.2932 23.58 76.3798 23.1467 76.3798 22.64V17.52C76.3798 17.1733 76.4932 16.8867 76.7198 16.66C76.9465 16.42 77.2332 16.3 77.5798 16.3ZM32.7651 40.1C33.1117 40.1 33.3984 40.2133 33.6251 40.44C33.8517 40.6667 33.9651 40.96 33.9651 41.32V49.78C33.9651 50.1267 33.8517 50.42 33.6251 50.66C33.3984 50.8867 33.1117 51 32.7651 51C32.4184 51 32.1317 50.8867 31.9051 50.66C31.6784 50.42 31.5651 50.1267 31.5651 49.78V48.8L32.0051 48.98C32.0051 49.1533 31.9117 49.3667 31.7251 49.62C31.5384 49.86 31.2851 50.1 30.9651 50.34C30.6451 50.58 30.2651 50.7867 29.8251 50.96C29.3984 51.12 28.9317 51.2 28.4251 51.2C27.5051 51.2 26.6717 50.9667 25.9251 50.5C25.1784 50.02 24.5851 49.3667 24.1451 48.54C23.7184 47.7 23.5051 46.74 23.5051 45.66C23.5051 44.5667 23.7184 43.6067 24.1451 42.78C24.5851 41.94 25.1717 41.2867 25.9051 40.82C26.6384 40.34 27.4517 40.1 28.3451 40.1C28.9184 40.1 29.4451 40.1867 29.9251 40.36C30.4051 40.5333 30.8184 40.7533 31.1651 41.02C31.5251 41.2867 31.7984 41.56 31.9851 41.84C32.1851 42.1067 32.2851 42.3333 32.2851 42.52L31.5651 42.78V41.32C31.5651 40.9733 31.6784 40.6867 31.9051 40.46C32.1317 40.22 32.4184 40.1 32.7651 40.1ZM28.7251 49C29.3117 49 29.8251 48.8533 30.2651 48.56C30.7051 48.2667 31.0451 47.8667 31.2851 47.36C31.5384 46.8533 31.6651 46.2867 31.6651 45.66C31.6651 45.02 31.5384 44.4467 31.2851 43.94C31.0451 43.4333 30.7051 43.0333 30.2651 42.74C29.8251 42.4467 29.3117 42.3 28.7251 42.3C28.1517 42.3 27.6451 42.4467 27.2051 42.74C26.7651 43.0333 26.4184 43.4333 26.1651 43.94C25.9251 44.4467 25.8051 45.02 25.8051 45.66C25.8051 46.2867 25.9251 46.8533 26.1651 47.36C26.4184 47.8667 26.7651 48.2667 27.2051 48.56C27.6451 48.8533 28.1517 49 28.7251 49ZM37.9637 51C37.617 51 37.3303 50.8867 37.1037 50.66C36.877 50.42 36.7637 50.1267 36.7637 49.78V37.42C36.7637 37.0733 36.877 36.7867 37.1037 36.56C37.3303 36.32 37.617 36.2 37.9637 36.2C38.3103 36.2 38.597 36.32 38.8237 36.56C39.0503 36.7867 39.1637 37.0733 39.1637 37.42V49.78C39.1637 50.1267 39.0503 50.42 38.8237 50.66C38.597 50.8867 38.3103 51 37.9637 51ZM44.3237 40.3C44.6303 40.3 44.897 40.4267 45.1237 40.68C45.3503 40.9333 45.4637 41.18 45.4637 41.42C45.4637 41.74 45.3037 42.04 44.9837 42.32L38.9637 47.86L38.8637 45.1L43.4437 40.68C43.697 40.4267 43.9903 40.3 44.3237 40.3ZM44.6237 50.98C44.277 50.98 43.9837 50.8467 43.7437 50.58L40.0437 46.66L41.8637 44.98L45.4637 48.9C45.717 49.1667 45.8437 49.4667 45.8437 49.8C45.8437 50.1467 45.7037 50.4333 45.4237 50.66C45.157 50.8733 44.8903 50.98 44.6237 50.98ZM55.7927 40.3C56.1394 40.3 56.4261 40.42 56.6527 40.66C56.8794 40.8867 56.9927 41.1733 56.9927 41.52V46.6C56.9927 48.0133 56.5994 49.1333 55.8127 49.96C55.0261 50.7867 53.8927 51.2 52.4127 51.2C50.9327 51.2 49.7994 50.7867 49.0127 49.96C48.2394 49.1333 47.8527 48.0133 47.8527 46.6V41.52C47.8527 41.1733 47.9661 40.8867 48.1927 40.66C48.4194 40.42 48.7061 40.3 49.0527 40.3C49.3994 40.3 49.6861 40.42 49.9127 40.66C50.1394 40.8867 50.2527 41.1733 50.2527 41.52V46.6C50.2527 47.4133 50.4327 48.02 50.7927 48.42C51.1527 48.8067 51.6927 49 52.4127 49C53.1461 49 53.6927 48.8067 54.0527 48.42C54.4127 48.02 54.5927 47.4133 54.5927 46.6V41.52C54.5927 41.1733 54.7061 40.8867 54.9327 40.66C55.1594 40.42 55.4461 40.3 55.7927 40.3ZM74.8565 37C75.1498 37 75.4365 37.1067 75.7165 37.32C76.0098 37.5333 76.1565 37.82 76.1565 38.18C76.1565 38.4333 76.0632 38.6867 75.8765 38.94L68.2165 48.78L67.9765 48.7H74.6565C75.0032 48.7 75.2898 48.8067 75.5165 49.02C75.7565 49.22 75.8765 49.4933 75.8765 49.84C75.8765 50.1733 75.7565 50.4533 75.5165 50.68C75.2898 50.8933 75.0032 51 74.6565 51H65.8765C65.5298 51 65.2298 50.88 64.9765 50.64C64.7232 50.3867 64.5965 50.1133 64.5965 49.82C64.5965 49.5667 64.6898 49.3133 64.8765 49.06L72.5565 39.18L72.7365 39.3H66.6765C66.3298 39.3 66.0365 39.1933 65.7965 38.98C65.5698 38.7667 65.4565 38.4867 65.4565 38.14C65.4565 37.7933 65.5698 37.52 65.7965 37.32C66.0365 37.1067 66.3298 37 66.6765 37H74.8565ZM80.4252 49.78C80.4252 50.1267 80.3119 50.42 80.0852 50.66C79.8586 50.8867 79.5719 51 79.2252 51C78.8786 51 78.5919 50.8867 78.3652 50.66C78.1386 50.42 78.0252 50.1267 78.0252 49.78V41.52C78.0252 41.1733 78.1386 40.8867 78.3652 40.66C78.5919 40.42 78.8786 40.3 79.2252 40.3C79.5719 40.3 79.8586 40.42 80.0852 40.66C80.3119 40.8867 80.4252 41.1733 80.4252 41.52V49.78ZM79.2052 39C78.7519 39 78.4319 38.9267 78.2452 38.78C78.0586 38.6333 77.9652 38.3733 77.9652 38V37.62C77.9652 37.2333 78.0652 36.9733 78.2652 36.84C78.4786 36.6933 78.7986 36.62 79.2252 36.62C79.6919 36.62 80.0186 36.6933 80.2052 36.84C80.3919 36.9867 80.4852 37.2467 80.4852 37.62V38C80.4852 38.3867 80.3852 38.6533 80.1852 38.8C79.9852 38.9333 79.6586 39 79.2052 39ZM84.0918 51C83.7451 51 83.4585 50.8867 83.2318 50.66C83.0051 50.42 82.8918 50.1267 82.8918 49.78V41.52C82.8918 41.1733 83.0051 40.8867 83.2318 40.66C83.4585 40.42 83.7451 40.3 84.0918 40.3C84.4385 40.3 84.7251 40.42 84.9518 40.66C85.1785 40.8867 85.2918 41.1733 85.2918 41.52V43.4L85.1518 42.06C85.2985 41.74 85.4851 41.46 85.7118 41.22C85.9518 40.9667 86.2185 40.76 86.5118 40.6C86.8051 40.4267 87.1185 40.3 87.4518 40.22C87.7851 40.14 88.1185 40.1 88.4518 40.1C88.8518 40.1 89.1851 40.2133 89.4518 40.44C89.7318 40.6667 89.8718 40.9333 89.8718 41.24C89.8718 41.68 89.7585 42 89.5318 42.2C89.3051 42.3867 89.0585 42.48 88.7918 42.48C88.5385 42.48 88.3051 42.4333 88.0918 42.34C87.8918 42.2467 87.6585 42.2 87.3918 42.2C87.1518 42.2 86.9051 42.26 86.6518 42.38C86.4118 42.4867 86.1851 42.66 85.9718 42.9C85.7718 43.14 85.6051 43.44 85.4718 43.8C85.3518 44.1467 85.2918 44.56 85.2918 45.04V49.78C85.2918 50.1267 85.1785 50.42 84.9518 50.66C84.7251 50.8867 84.4385 51 84.0918 51ZM101.494 45.66C101.494 46.7533 101.248 47.72 100.754 48.56C100.274 49.3867 99.6211 50.0333 98.7945 50.5C97.9811 50.9667 97.0678 51.2 96.0545 51.2C95.0411 51.2 94.1211 50.9667 93.2945 50.5C92.4811 50.0333 91.8278 49.3867 91.3345 48.56C90.8545 47.72 90.6145 46.7533 90.6145 45.66C90.6145 44.5667 90.8545 43.6067 91.3345 42.78C91.8278 41.94 92.4811 41.2867 93.2945 40.82C94.1211 40.34 95.0411 40.1 96.0545 40.1C97.0678 40.1 97.9811 40.34 98.7945 40.82C99.6211 41.2867 100.274 41.94 100.754 42.78C101.248 43.6067 101.494 44.5667 101.494 45.66ZM99.0945 45.66C99.0945 44.98 98.9545 44.3933 98.6745 43.9C98.4078 43.3933 98.0411 43 97.5745 42.72C97.1211 42.44 96.6145 42.3 96.0545 42.3C95.4945 42.3 94.9811 42.44 94.5145 42.72C94.0611 43 93.6945 43.3933 93.4145 43.9C93.1478 44.3933 93.0145 44.98 93.0145 45.66C93.0145 46.3267 93.1478 46.9133 93.4145 47.42C93.6945 47.9133 94.0611 48.3 94.5145 48.58C94.9811 48.86 95.4945 49 96.0545 49C96.6145 49 97.1211 48.86 97.5745 48.58C98.0411 48.3 98.4078 47.9133 98.6745 47.42C98.9545 46.9133 99.0945 46.3267 99.0945 45.66Z" fill="#CC5500"/>
</svg>
