<svg width="95" height="95" viewBox="0 0 95 95" fill="none" xmlns="http://www.w3.org/2000/svg">
<path fill-rule="evenodd" clip-rule="evenodd" d="M28.6781 7.9165H66.3219C70.9096 7.9165 73.2015 7.9165 75.054 8.56171C76.7999 9.18208 78.3795 10.196 79.6707 11.5249C80.9618 12.8538 81.9298 14.462 82.4996 16.225C83.125 18.133 83.125 20.4921 83.125 25.2144V80.6469C83.125 84.0432 79.226 85.8482 76.76 83.5919C76.0681 82.9526 75.1607 82.5976 74.2188 82.5976C73.2768 82.5976 72.3694 82.9526 71.6775 83.5919L69.7656 85.3415C68.5536 86.4623 66.9634 87.0849 65.3125 87.0849C63.6616 87.0849 62.0714 86.4623 60.8594 85.3415C59.6473 84.2206 58.0571 83.5981 56.4062 83.5981C54.7554 83.5981 53.1652 84.2206 51.9531 85.3415C50.7411 86.4623 49.1509 87.0849 47.5 87.0849C45.8491 87.0849 44.2589 86.4623 43.0469 85.3415C41.8348 84.2206 40.2446 83.5981 38.5938 83.5981C36.9429 83.5981 35.3527 84.2206 34.1406 85.3415C32.9286 86.4623 31.3384 87.0849 29.6875 87.0849C28.0366 87.0849 26.4464 86.4623 25.2344 85.3415L23.3225 83.5919C22.6306 82.9526 21.7232 82.5976 20.7812 82.5976C19.8393 82.5976 18.9319 82.9526 18.24 83.5919C15.774 85.8482 11.875 84.0432 11.875 80.6469V25.2144C11.875 20.4921 11.875 18.129 12.5004 16.229C13.6879 12.615 16.439 9.78088 19.946 8.56171C21.7985 7.9165 24.0904 7.9165 28.6781 7.9165ZM59.6125 33.6457C59.8724 33.3546 60.0724 33.0151 60.2012 32.6467C60.3299 32.2783 60.3848 31.8882 60.3627 31.4986C60.3407 31.1089 60.2421 30.7275 60.0726 30.376C59.9032 30.0244 59.6661 29.7097 59.375 29.4498C59.0839 29.1899 58.7445 28.9899 58.3761 28.8612C58.0077 28.7325 57.6175 28.6775 57.2279 28.6996C56.8383 28.7217 56.4568 28.8202 56.1053 28.9897C55.7538 29.1592 55.4391 29.3962 55.1792 29.6873L43.2606 43.0428L39.8169 39.1873C39.2906 38.6058 38.5555 38.2561 37.7722 38.2147C36.9889 38.1734 36.2211 38.4437 35.6365 38.9666C35.0518 39.4895 34.6979 40.2226 34.652 41.0056C34.6061 41.7886 34.8719 42.558 35.3915 43.1457L41.044 49.479C41.3224 49.791 41.6637 50.0406 42.0453 50.2115C42.427 50.3824 42.8405 50.4707 43.2586 50.4707C43.6768 50.4707 44.0903 50.3824 44.4719 50.2115C44.8536 50.0406 45.1948 49.791 45.4733 49.479L59.6125 33.6457ZM29.6875 58.3853C28.9001 58.3853 28.145 58.698 27.5883 59.2548C27.0315 59.8115 26.7188 60.5666 26.7188 61.354C26.7188 62.1414 27.0315 62.8965 27.5883 63.4532C28.145 64.01 28.9001 64.3228 29.6875 64.3228H65.3125C66.0999 64.3228 66.855 64.01 67.4117 63.4532C67.9685 62.8965 68.2812 62.1414 68.2812 61.354C68.2812 60.5666 67.9685 59.8115 67.4117 59.2548C66.855 58.698 66.0999 58.3853 65.3125 58.3853H29.6875Z" fill="#CC5500"/>
</svg>
